<svg width="24" height="24" fill="none" xmlns="http://www.w3.org/2000/svg">
  <path d="M12 22.9A10.9 10.9 0 1 0 12 1.1a10.9 10.9 0 0 0 0 21.82Z" fill="#ECF3FF"/>
  <path
    d="M9.05 5.35 5.24 3.82v.54L8.5 7.31l-.22 3.05-.98 4.15L6 16.36l.33 2.62 1.63.22 1.31-.22 1.31.22 2.3-1.42.43-2.29 2.73-2.62 1.2.88 1.2 1.74V19l1.63-.44 1.64-3.6.44-4.59-5.9-8.61-.98-.22-6.22 3.82Z"
    fill="#fff"/>
  <path
    d="M7.75 4.58a100.1 100.1 0 0 0-1.86-.87c.5-.48 1.42-.98 2.18-1.31-.54.44-.54 1.35-.32 2.18ZM3.3 11.43a9.6 9.6 0 0 1 1.92-4.8l.04-.06c.13-.17.26-.33.41-.48l-.98-.92c-.17.26-.35.52-.5.79-.8 1.4-1.24 2.96-1.35 4.51-.04.3-.03.6-.03.88v.28a10.54 10.54 0 0 0 .68 3.36c-.17-.74-.26-1.49-.28-2.25a6.23 6.23 0 0 1 .09-1.3ZM4.97 10.65a8.26 8.26 0 0 1 1.42-3.9l.85.8a7.59 7.59 0 0 0-1.98 3.98l-.05.32-.04.28c-.02.09-.02.2-.02.28l-.02.6-.09-.6c-.02-.08-.04-.2-.04-.28l-.03-.3c-.02-.2-.02-.4-.02-.6-.02-.2 0-.39.02-.58ZM18.17 4.56c-1.15-.42-1.61-.28-1.61-.28s-.72 1.94-3.47 2.07c.02.02 2.49 1.46 5.08-1.8ZM15.56 11.54c1.44.18 3.3-.72 3.4-3.12.22.22 2.81 3.2 1.2 7.72-.8-2.35-3.3-2.98-3.3-2.98l-1.43-.11-2.2 2.64s.67 1.17-.68 2.27c-1.34 1.04-2.27 1.2-2.27 1.2l-.79-.57c.28-.29.85-.7 1.29-.96.26-.16.51-.26.73-.35.4-.16.7-.27.75-.66.2-1.22-1.15-1.06-1.15-1.06l-.55.39-.44 1.66-1.17 1.1-.11-.03-1.57-.6s1.06-.36 1.3-.93c.2-.46.08-1.94.04-2.45l-.01-.17s0 .02.03.05c.1.14.4.54.49 1.08a8.18 8.18 0 0 1 1.27-1.9l2.11-.78-.83 1.53.48-.18 1.46-2.53s1.16-.37 1.95-.26Z"
    fill="#94A6C4"/>
  <path
    d="M15.2 3.23s.1.94-.52 1.48c-.76.66-1.33.55-1.3.55l1.83-2.03ZM7.83 16.25l.3-.87s-.93 1.2-1.02 1.38c-.08.2-.04.56.26.58.31.03.72-.37.77-.67.06-.42-.3-.42-.3-.42ZM13.05 9.97c-.5.41-1.68.94-2.34 1-.22.5-1.33.11-.67-1.48 0 0 .08.83.3.79.22-.05 3.03-3.34 3.03-3.34s-.43.91-.7 1.35a1 1 0 0 1 .38 1.68Z"
    fill="#1C324F"/>
  <path fill-rule="evenodd" clip-rule="evenodd"
        d="M22.46 7.21c-.28-.24-.58-.5-.97-.66A10.98 10.98 0 0 1 12 22.9 10.91 10.91 0 0 1 4.43 4.14C4.4 4.16 1.8 7.1 1.8 11.41c0 5.48 4.32 10.15 9.6 10.15l.26-.02h.22c4.06-.25 5.83-3.43 5.83-5.61 0-.79-.37-2.23-1.38-2.58-.28.3-.85.86-1.3 1.3l-.47.47c-.41.44-.78.87-.78 1.42a2.2 2.2 0 0 1-.66 1.55c-.16.14-.48.35-.84.58-.35.22-.73.47-1.01.68-.4.26-.87.26-1.24.22-.12-.01-.22-.04-.3-.06a2.65 2.65 0 0 0-.12-.03l-.06-.02c-.29-.02-.4.02-.83.3-.11.1-.33.12-.55.07a6.96 6.96 0 0 1-1.92-.7c-.48-.28-.83-2.2-.8-2.64 0-.26.43-.83.8-1.33.24-.34.46-.65.53-.8.1-.27.58-2.02.88-3.14l.25-.9c.09-.37.1-.66-.13-1.22-.18-.42-.13-.81.22-1.6a162.29 162.29 0 0 1-5.37-5.12c-.13-.13-.07-.2-.07-.2s.07-.06.22-.02a104.87 104.87 0 0 1 4.03 1.89l.82.38C6.98 3.38 7.2 1.63 10.6.17c0 0-.48.6-.52.99C12.55-.54 15.25.4 15.25.4c-.52.2-1.09.57-1.24.81.13-.04 6.5-.8 8.46 6l-.01-.01ZM5.67 4.36l.92.79c1.05.9 1.98 1.63 2.16 1.74.2.13.33.18.44.03.2-.29.08-.5-.03-.64l-.04-.04C8.95 6.1 8.01 5.58 6.87 5l-1.2-.64Zm6.88 13.07c.21-.24.39-.57.39-.94v-.08c-.11-1.03-1-1.68-1.33-1.7-.37 0-.88 0-1.05.08.35-.41.79-.57 1.22-.63.48-.92 1.49-2.82 1.66-2.92.08-.05.24-.08.49-.12.07 0 .16-.02.25-.04.22 0 .57-.04.61-.08.11-.14 1.33-2.19 1.42-2.34 0-.15-.28-1.37-.61-2.55-1.27.65-2.49.26-2.49.26s.92-.13 2.01-1.33c1.1-1.2.5-3.16.5-3.16s-3.77 4.23-4.17 4.27c-.41.05-.6-.48-.6-.48s-1.14 2-1.47 2.75c-.35.74-.17 1.5-.02 1.9.17.4.52 1.37-.26 2.2.15-.39-.18-1.09-.42-1.5-.24.98-.87 3.31-1.02 3.68-.09.27-.29.55-.63 1.03a9.7 9.7 0 0 1-.2.29c-.17.23-.36.48-.42.63.03.41.24 1.44.42 1.76.3.16.74.35 1.11.46.18.02.42-.04.79-.28l.23-.16c.52-.36.88-.6 1.05-1.1.07-.19.12-.41.18-.64.1-.44.21-.88.41-1.03.29-.2.85-.24 1.27-.06-.33-.04-.74.06-.74.06s.67-.02.85.5c.2.5-.07.75-.5.97-.37.17-1.5 1.07-1.92 1.48l.67.09c.29.04.46 0 .57-.07l.47-.32.42-.29c.31-.2.75-.48.86-.59Zm-1.87-.8c-.04.22-.1.57-.3.78.05-.04.42-.35.6-.46l.22-.1c.2-.09.38-.16.4-.38.05-.33-.36-.46-.56-.43-.2.02-.28.3-.33.45l-.03.15Zm6.16-3.47a5.61 5.61 0 0 1 3.04 4.53c2.75-3.31 1.9-8.94-3.5-11.5l.08.32c.26 1.03.6 2.38.58 2.46-.02.13-.61 1.17-.65 1.22a5.6 5.6 0 0 1-.79-.05c-.3.53-.61 1-.65 1.07-.1.1-.31.13-.75.18-.21.02-.59.06-.63.1-.13.14-.98 1.67-1.55 2.73.57-.02 1.03.16 1.14.22 1.13-1.55 1.96-2.35 2.13-2.33l.16.02c.48.07 1.85.28 2.83-.61 1.12-1 .72-2.92.68-3.1 1.4 3.86-1.13 4.63-2.12 4.74Z"
        fill="#1C324F"/>
  <path d="m10.95 10.56 1.46-1.86s.64.44.22.94c-.52.6-1.68.92-1.68.92Z" fill="#FFD925"/>
  <path
    d="M10.87 5.02s.28-3.34 2.29-4.24c-.16.05-4.24 1.3-2.3 4.24ZM9.4 1.2v.02-.02ZM9.3 1.35l.1-.13c-.13.24-1.17 2.65.61 4.26C6.97 4.45 8.81 2 9.3 1.35ZM14.84 2.29l-1 1.1c-.81.23-1.6.67-2.34 1.39 0-.42 1.2-2.23 3.34-2.49ZM16.1 3.23c.02-.29 0-.61-.04-.92 1.3.18 2.86.94 4.62 2.66a13.25 13.25 0 0 0-4.58-1.74ZM16.5 4.65s4.86 2.13 5.75 8.13c.14-7.8-5.4-8.2-5.76-8.13Z"
    fill="#D82423"/>
</svg>
