<svg width="24" height="24" viewBox="0 0 24 24" fill="none" xmlns="http://www.w3.org/2000/svg">
<path d="M12 24C18.6274 24 24 18.6274 24 12C24 5.37258 18.6274 0 12 0C5.37258 0 0 5.37258 0 12C0 18.6274 5.37258 24 12 24Z" fill="#FFFBEC"/>
<path d="M10.5547 3.70148C10.786 3.98178 10.9284 4.32437 11.053 4.66252C11.2621 5.27652 11.36 5.92166 11.4312 6.56235C11.4979 7.24309 11.5291 7.92383 11.5647 8.60457C11.5736 8.80033 11.5958 8.99165 11.5825 9.18742C11.5202 9.19187 11.4579 9.19187 11.4 9.20077C11.3734 7.64797 11.1064 6.10853 10.7594 4.60023C10.6971 4.29323 10.6036 4.00403 10.5547 3.70148Z" fill="#D26B7F"/>
<path d="M16.9036 8.08401C17.7401 7.68803 18.71 7.559 19.6088 7.80371C19.413 7.85265 19.2128 7.81706 19.0126 7.83041C18.3363 7.8749 17.6734 8.05287 17.0638 8.34652C16.0761 8.81369 15.253 9.56562 14.5633 10.3976C14.4521 10.5356 14.3498 10.6824 14.2296 10.8159C14.194 10.7447 14.154 10.6735 14.1184 10.6023C14.105 10.5534 14.1406 10.5133 14.1629 10.4733C14.5411 9.9705 14.9593 9.50778 15.422 9.0851C15.8625 8.68467 16.3608 8.34652 16.9036 8.08401Z" fill="#D26B7F"/>
<path d="M4.00088 10.8559C4.65047 10.5489 5.3935 10.5 6.09649 10.5979C7.08867 10.7536 8.00522 11.1852 8.89952 11.6212C8.89952 11.6702 8.89507 11.7191 8.89507 11.768C8.89062 11.8481 8.88617 11.9282 8.88172 12.0083C8.24548 11.7235 7.61813 11.4165 6.94629 11.2163C6.3145 11.0206 5.63821 10.9093 4.97527 10.9939C4.63268 11.0428 4.29898 11.1407 3.99198 11.292C3.85851 11.3632 3.72948 11.4432 3.5871 11.5011C3.51591 11.2119 3.75172 10.9494 4.00088 10.8559Z" fill="#D26B7F"/>
<path d="M13.9405 13.7569C13.985 13.6901 14.0294 13.6234 14.0739 13.5566C16.0984 14.313 17.9181 15.5188 19.6177 16.8402C19.7512 16.9292 19.7957 17.0983 19.8179 17.2495C19.8313 17.3252 19.769 17.3786 19.7378 17.4408C19.4486 17.1739 19.1861 16.8758 18.8791 16.6311C17.4153 15.3942 15.6935 14.4999 13.9182 13.8058L13.9405 13.7569Z" fill="#D26B7F"/>
<path d="M10.5946 15.2073C10.6925 15.0649 10.7548 14.8869 10.8883 14.7712L10.9283 14.7757C10.9728 14.789 11.0173 14.8024 11.0662 14.8202C11.0885 14.8513 11.0707 14.8869 11.0529 14.9181C10.3766 15.9636 9.86049 17.1071 9.10856 18.1037C8.84605 18.4285 8.5613 18.7533 8.18312 18.9491C8.0007 19.0425 7.79158 19.0826 7.58691 19.0692C7.86277 18.8735 8.12083 18.6554 8.36109 18.4152C9.26429 17.463 9.90498 16.3107 10.5946 15.2073Z" fill="#D26B7F"/>
<path d="M9.66467 10.0595C10.1185 9.57453 10.7369 9.26753 11.3999 9.19634C11.4622 9.1919 11.5245 9.18745 11.5823 9.183C12.6101 9.12516 13.6201 9.71246 14.1184 10.6068C14.154 10.678 14.194 10.7491 14.2296 10.8203C14.63 11.6835 14.5767 12.7469 14.0739 13.5566C14.0294 13.6234 13.9849 13.6946 13.9404 13.7568C13.5533 14.2863 12.9927 14.66 12.3609 14.8247C11.9382 14.9225 11.4889 14.9448 11.0706 14.8158C11.0261 14.798 10.9816 14.7846 10.9327 14.7713C10.3454 14.5666 9.84709 14.1484 9.4778 13.6456C9.1352 13.1695 8.88159 12.6 8.88604 12.0038C8.89049 11.9237 8.89494 11.8437 8.89939 11.7636C8.95723 11.1273 9.22864 10.5267 9.66467 10.0595Z" fill="#FEECAC"/>
<path d="M9.30437 2.28218C9.90502 1.99743 10.5858 1.97073 11.2398 2.01967C11.7604 2.05972 12.2898 2.14425 12.7659 2.37562C13.2197 2.58918 13.6024 2.92287 13.8693 3.34555C14.2431 3.93286 14.3943 4.62694 14.4611 5.31213C14.4878 5.73036 14.5145 6.14859 14.4878 6.56682C14.6079 6.48229 14.7236 6.38885 14.8437 6.30432C15.6401 5.75261 16.5611 5.36997 17.5266 5.24539C17.6378 5.23204 17.7446 5.21869 17.8559 5.2098C17.976 5.2098 18.0961 5.2098 18.2162 5.2098C18.3898 5.21425 18.5588 5.22759 18.7279 5.24984C19.2396 5.32548 19.7245 5.51235 20.1561 5.79265C20.6589 6.1219 21.0682 6.58017 21.3797 7.08739C21.66 7.55011 21.9002 8.06177 21.9314 8.61348C21.9714 9.20968 21.8335 9.80589 21.5309 10.3264C21.1127 11.0695 20.4631 11.6523 19.7646 12.124C20.6277 12.7735 21.3619 13.6367 21.7134 14.6689C21.9225 15.2829 21.9892 15.937 21.9002 16.5821C21.8113 17.2451 21.5665 17.8813 21.2328 18.4597C20.9481 18.9491 20.5343 19.3763 20.0226 19.621C19.3775 19.9458 18.6211 19.9902 17.9181 19.8657C16.8859 19.6922 15.9249 19.2161 15.0795 18.6154C14.7458 18.3752 14.4299 18.1127 14.1363 17.8324C14.0517 17.7523 13.9805 17.6633 13.8827 17.601C13.5223 18.6822 12.8504 19.6477 12.014 20.4129C11.529 20.849 10.9773 21.2227 10.3677 21.4541C9.79379 21.6721 9.162 21.7566 8.55245 21.6498C7.91175 21.543 7.32 21.236 6.81723 20.8312C6.4435 20.5286 6.092 20.186 5.8384 19.7722C5.48245 19.1983 5.32673 18.5086 5.35788 17.8368C5.38902 17.0315 5.64708 16.2529 6.01192 15.541C6.12315 15.3185 6.25218 15.1094 6.37676 14.8958C5.70047 14.9181 5.01528 14.8602 4.37459 14.6378C3.85847 14.4687 3.39575 14.1706 3.02201 13.7746C2.57264 13.2897 2.28788 12.6712 2.15441 12.0261C2.04762 11.6256 1.99868 11.2119 2.00313 10.7981C1.98533 9.96606 2.03428 9.09845 2.39022 8.32873C2.54594 7.98614 2.78175 7.67914 3.0754 7.43888C3.33346 7.25201 3.62266 7.12298 3.92966 7.05624C4.52141 6.93166 5.13541 7.0073 5.70937 7.16747C6.54583 7.39883 7.32 7.80817 8.04523 8.27979C7.8984 7.51451 7.76938 6.74479 7.75158 5.96617C7.72933 5.13416 7.79607 4.2799 8.13867 3.51018C8.36558 2.99851 8.77046 2.53134 9.30437 2.28218ZM10.5546 3.7015C10.6036 4.00405 10.697 4.29325 10.7593 4.59135C11.1063 6.1041 11.3733 7.63909 11.4 9.19189C10.737 9.26307 10.123 9.57008 9.66476 10.055C9.22429 10.5222 8.95288 11.1229 8.89504 11.7636C8.89504 11.7146 8.89949 11.6657 8.89949 11.6167C8.00519 11.1807 7.08864 10.7491 6.09645 10.5934C5.39347 10.4955 4.65044 10.5445 4.00085 10.8515C3.74724 10.9449 3.51588 11.2119 3.59152 11.4966C3.72944 11.4388 3.85847 11.3587 3.9964 11.2875C4.30785 11.1362 4.64154 11.0383 4.97969 10.9894C5.64263 10.9049 6.31447 11.0161 6.95071 11.2119C7.6181 11.4121 8.2499 11.7191 8.88614 12.0038C8.88169 12.6 9.1353 13.1695 9.47789 13.6456C9.84273 14.1439 10.3411 14.5621 10.9328 14.7713L10.8928 14.7668C10.7593 14.8825 10.697 15.056 10.5991 15.2028C9.90947 16.3063 9.26878 17.4586 8.36558 18.4063C8.12532 18.6421 7.86726 18.8646 7.5914 19.0604C7.79607 19.0737 8.00519 19.0337 8.18761 18.9402C8.56135 18.7445 8.85055 18.4241 9.11305 18.0949C9.86498 17.0982 10.3811 15.9548 11.0574 14.9092C11.0752 14.878 11.0974 14.8469 11.0707 14.8113C11.489 14.9403 11.9383 14.9181 12.361 14.8202C12.9973 14.66 13.5534 14.2818 13.945 13.7524L13.9138 13.7969C15.6891 14.491 17.4109 15.3897 18.8747 16.6222C19.1817 16.8713 19.4442 17.1694 19.7334 17.4319C19.7646 17.3741 19.8313 17.3162 19.8135 17.2406C19.7913 17.0893 19.7468 16.9203 19.6133 16.8313C17.9137 15.5098 16.0939 14.3041 14.0695 13.5477C14.5679 12.738 14.6257 11.6746 14.2253 10.8114C14.3454 10.6779 14.4477 10.5311 14.559 10.3932C15.253 9.56118 16.0717 8.80925 17.0639 8.34208C17.6734 8.04843 18.3364 7.87046 19.0127 7.82596C19.2129 7.80817 19.4131 7.84376 19.6089 7.79927C18.7146 7.55901 17.7402 7.68359 16.9037 8.07957C16.3609 8.33763 15.8626 8.67577 15.4221 9.08066C14.9594 9.50333 14.5412 9.97051 14.163 10.4688C14.1407 10.5089 14.1051 10.5489 14.1185 10.5979C13.6202 9.708 12.6102 9.11625 11.5824 9.17409C11.5957 8.97832 11.5735 8.787 11.5646 8.59124C11.529 7.9105 11.4979 7.22976 11.4311 6.54902C11.3599 5.90833 11.2665 5.26319 11.0529 4.64919C10.9284 4.32439 10.786 3.9818 10.5546 3.7015Z" fill="#EA8397"/>
</svg>
