<svg width="24" height="24" viewBox="0 0 24 24" fill="none" xmlns="http://www.w3.org/2000/svg">
<path d="M0 12C0 5.37258 5.37258 0 12 0C18.6274 0 24 5.37258 24 12C24 18.6274 18.6274 24 12 24C5.37258 24 0 18.6274 0 12Z" fill="#F5AC37"/>
<path d="M13.1873 12.8493H17.7471C17.8443 12.8493 17.8902 12.8493 17.8972 12.7219C17.9345 12.258 17.9345 11.7915 17.8972 11.327C17.8972 11.2369 17.8524 11.1996 17.7547 11.1996H8.67989C8.56757 11.1996 8.53733 11.2369 8.53733 11.3422V12.6771C8.53733 12.8493 8.53733 12.8493 8.71715 12.8493H13.1873ZM17.388 9.63953C17.401 9.60551 17.401 9.56825 17.388 9.53477C17.3119 9.36899 17.2217 9.21076 17.1169 9.06226C16.9593 8.80846 16.7735 8.57464 16.5618 8.36458C16.4619 8.23767 16.3463 8.12373 16.2167 8.02707C15.5677 7.47465 14.796 7.08368 13.9665 6.88712C13.548 6.79316 13.1204 6.74834 12.6916 6.75212H8.66423C8.55191 6.75212 8.53679 6.79694 8.53679 6.89468V9.55691C8.53679 9.66923 8.53679 9.69947 8.67935 9.69947H17.334C17.334 9.69947 17.4091 9.68435 17.4242 9.63953H17.3875H17.388ZM17.388 14.4094C17.2606 14.3954 17.1321 14.3954 17.0046 14.4094H8.68745C8.57513 14.4094 8.53733 14.4094 8.53733 14.5595V17.1623C8.53733 17.2822 8.53733 17.3125 8.68745 17.3125H12.5274C12.711 17.3265 12.8946 17.3135 13.0745 17.2752C13.6317 17.2352 14.1798 17.1143 14.7026 16.915C14.8927 16.8491 15.0763 16.7633 15.2496 16.6601H15.302C16.2022 16.192 16.9333 15.4565 17.3945 14.5536C17.3945 14.5536 17.4469 14.4402 17.388 14.4105V14.4094ZM7.03017 18.6619V18.6171V16.8697V16.2773V14.5147C7.03017 14.417 7.03017 14.4024 6.91029 14.4024H5.28271C5.19253 14.4024 5.15527 14.4024 5.15527 14.2825V12.8574H6.89517C6.99237 12.8574 7.03017 12.8574 7.03017 12.73V11.32C7.03017 11.2298 7.03017 11.2077 6.91029 11.2077H5.28271C5.19253 11.2077 5.15527 11.2077 5.15527 11.0878V9.76805C5.15527 9.68543 5.15527 9.66329 5.27515 9.66329H6.88761C6.99993 9.66329 7.03017 9.66329 7.03017 9.52073V5.47825C7.03017 5.35837 7.03017 5.32812 7.18029 5.32812H12.805C13.2132 5.34433 13.6188 5.38915 14.02 5.46313C14.8468 5.61595 15.6411 5.91133 16.3674 6.33308C16.8491 6.61658 17.2924 6.95894 17.6872 7.35315C17.9842 7.66149 18.252 7.99521 18.4896 8.35054C18.7256 8.71072 18.9216 9.09574 19.0755 9.49805C19.0944 9.60281 19.1949 9.67355 19.2996 9.65573H20.6421C20.8143 9.65573 20.8143 9.65573 20.8219 9.82097V11.0511C20.8219 11.171 20.7771 11.2012 20.6567 11.2012H19.6215C19.5167 11.2012 19.4865 11.2012 19.494 11.3362C19.5351 11.7931 19.5351 12.2515 19.494 12.7084C19.494 12.8358 19.494 12.8509 19.6371 12.8509H20.8214C20.8737 12.9184 20.8214 12.9859 20.8214 13.054C20.8289 13.1409 20.8289 13.2289 20.8214 13.3159V14.2236C20.8214 14.3511 20.7841 14.3889 20.6712 14.3889H19.2537C19.1549 14.37 19.0588 14.4332 19.0361 14.5314C18.6986 15.4089 18.1586 16.1957 17.4609 16.8265C17.206 17.056 16.9382 17.272 16.6585 17.4712C16.3582 17.644 16.0661 17.8239 15.7583 17.9664C15.1918 18.2213 14.5978 18.4092 13.9881 18.5286C13.4093 18.6322 12.8223 18.6792 12.2331 18.6711H7.02801V18.6636L7.03017 18.6619Z" fill="#FEFEFD"/>
</svg>
