<svg width="24" height="24" viewBox="0 0 24 24" fill="none" xmlns="http://www.w3.org/2000/svg">
<path d="M16.2197 5.1286L19.0558 2.2925C17.0755 0.850639 14.6371 0 12 0C9.36289 0 6.92446 0.850651 4.94413 2.29253L7.78023 5.12863C9.0077 4.37322 10.453 3.9375 12 3.9375C13.547 3.9375 14.9923 4.37321 16.2197 5.1286Z" fill="#0D022B"/>
<path d="M21.7075 19.0559L18.8714 16.2198C19.6268 14.9923 20.0625 13.547 20.0625 12C20.0625 10.453 19.6268 9.00771 18.8714 7.78024L21.7075 4.94414C23.1494 6.92447 24 9.36289 24 12C24 14.6371 23.1493 17.0755 21.7075 19.0559Z" fill="#0D022B"/>
<path d="M3.9375 12C3.9375 13.547 4.37321 14.9923 5.1286 16.2197L2.2925 19.0558C0.850639 17.0755 0 14.6371 0 12C0 9.36291 0.850636 6.9245 2.29249 4.94419L5.12859 7.78029C4.3732 9.00775 3.9375 10.453 3.9375 12Z" fill="#0D022B"/>
<path d="M7.78024 18.8714L4.94414 21.7075C6.92447 23.1494 9.36289 24 12 24C14.6371 24 17.0755 23.1494 19.0558 21.7075L16.2197 18.8714C14.9923 19.6268 13.547 20.0625 12 20.0625C10.453 20.0625 9.00771 19.6268 7.78024 18.8714Z" fill="#0D022B"/>
<path d="M23.625 2.25C23.625 1.2104 22.7812 0.375 21.75 0.375C20.7188 0.375 19.875 1.2104 19.875 2.25C19.875 3.2896 20.7188 4.125 21.75 4.125C22.7812 4.125 23.625 3.2896 23.625 2.25Z" fill="#0D022B"/>
<path d="M21.75 19.875C22.7812 19.875 23.625 20.7104 23.625 21.75C23.625 22.7896 22.7812 23.625 21.75 23.625C20.7188 23.625 19.875 22.7896 19.875 21.75C19.875 20.7104 20.7188 19.875 21.75 19.875Z" fill="#0D022B"/>
<path d="M2.25 19.875C3.28125 19.875 4.125 20.7104 4.125 21.75C4.125 22.7896 3.28125 23.625 2.25 23.625C1.21875 23.625 0.375 22.7896 0.375 21.75C0.375 20.7104 1.21875 19.875 2.25 19.875Z" fill="#0D022B"/>
<path d="M2.25 0.375C3.28125 0.375 4.125 1.2104 4.125 2.25C4.125 3.2896 3.28125 4.125 2.25 4.125C1.21875 4.125 0.375 3.2896 0.375 2.25C0.375 1.2104 1.21875 0.375 2.25 0.375Z" fill="#0D022B"/>
<path d="M19.2863 4.17197C19.085 4.37334 19.085 4.69981 19.2863 4.90118C19.4877 5.10254 19.8142 5.10254 20.0155 4.90118C20.2169 4.69981 20.2169 4.37334 20.0155 4.17197C19.8142 3.97061 19.4877 3.97061 19.2863 4.17197Z" fill="#0D022B"/>
<path d="M4.868 4.2051C4.68494 4.02204 4.38815 4.02204 4.20509 4.2051C4.02203 4.38816 4.02203 4.68496 4.20509 4.86802C4.38815 5.05107 4.68494 5.05107 4.868 4.86802C5.05106 4.68496 5.05106 4.38816 4.868 4.2051Z" fill="#0D022B"/>
<path d="M6.12754 5.46464C5.94448 5.28158 5.64768 5.28158 5.46462 5.46464C5.28156 5.6477 5.28156 5.94449 5.46462 6.12755C5.64768 6.31061 5.94448 6.31061 6.12754 6.12755C6.31059 5.94449 6.31059 5.6477 6.12754 5.46464Z" fill="#0D022B"/>
<path d="M6.72416 6.72417C6.90722 6.54111 7.20401 6.54111 7.38707 6.72417C7.57013 6.90723 7.57013 7.20403 7.38707 7.38708C7.20401 7.57014 6.90722 7.57014 6.72416 7.38708C6.5411 7.20403 6.5411 6.90723 6.72416 6.72417Z" fill="#0D022B"/>
<path d="M8.6466 7.9837C8.46354 7.80065 8.16675 7.80065 7.98369 7.9837C7.80063 8.16676 7.80063 8.46356 7.98369 8.64662C8.16675 8.82968 8.46354 8.82968 8.6466 8.64662C8.82966 8.46356 8.82966 8.16676 8.6466 7.9837Z" fill="#0D022B"/>
<path d="M9.24323 9.24324C9.42628 9.06018 9.72308 9.06018 9.90614 9.24324C10.0892 9.4263 10.0892 9.72309 9.90614 9.90615C9.72308 10.0892 9.42628 10.0892 9.24323 9.90615C9.06017 9.72309 9.06017 9.4263 9.24323 9.24324Z" fill="#0D022B"/>
<path d="M11.1657 10.5028C10.9826 10.3197 10.6858 10.3197 10.5028 10.5028C10.3197 10.6858 10.3197 10.9826 10.5028 11.1657C10.6858 11.3487 10.9826 11.3487 11.1657 11.1657C11.3487 10.9826 11.3487 10.6858 11.1657 10.5028Z" fill="#0D022B"/>
<path d="M13.6847 13.0218C13.5017 12.8388 13.2049 12.8388 13.0218 13.0218C12.8388 13.2049 12.8388 13.5017 13.0218 13.6848C13.2049 13.8678 13.5017 13.8678 13.6847 13.6848C13.8678 13.5017 13.8678 13.2049 13.6847 13.0218Z" fill="#0D022B"/>
<path d="M14.2814 14.2814C14.4644 14.0983 14.7612 14.0983 14.9443 14.2814C15.1273 14.4644 15.1273 14.7612 14.9443 14.9443C14.7612 15.1273 14.4644 15.1273 14.2814 14.9443C14.0983 14.7612 14.0983 14.4644 14.2814 14.2814Z" fill="#0D022B"/>
<path d="M16.2038 15.5409C16.0207 15.3578 15.724 15.3578 15.5409 15.5409C15.3578 15.724 15.3578 16.0208 15.5409 16.2038C15.724 16.3869 16.0207 16.3869 16.2038 16.2038C16.3869 16.0208 16.3869 15.724 16.2038 15.5409Z" fill="#0D022B"/>
<path d="M16.8004 16.8004C16.9835 16.6174 17.2803 16.6174 17.4633 16.8004C17.6464 16.9835 17.6464 17.2803 17.4633 17.4634C17.2803 17.6464 16.9835 17.6464 16.8004 17.4634C16.6174 17.2803 16.6174 16.9835 16.8004 16.8004Z" fill="#0D022B"/>
<path d="M18.7229 18.06C18.5398 17.8769 18.243 17.8769 18.06 18.06C17.8769 18.243 17.8769 18.5398 18.06 18.7229C18.243 18.9059 18.5398 18.9059 18.7229 18.7229C18.9059 18.5398 18.9059 18.243 18.7229 18.06Z" fill="#0D022B"/>
<path d="M19.3195 19.3195C19.5026 19.1365 19.7994 19.1365 19.9824 19.3195C20.1655 19.5026 20.1655 19.7994 19.9824 19.9824C19.7994 20.1655 19.5026 20.1655 19.3195 19.9824C19.1364 19.7994 19.1364 19.5026 19.3195 19.3195Z" fill="#0D022B"/>
<path d="M4.17193 19.2864C3.97056 19.4877 3.97056 19.8142 4.17193 20.0156C4.37329 20.2169 4.69977 20.2169 4.90113 20.0156C5.1025 19.8142 5.1025 19.4877 4.90113 19.2864C4.69977 19.085 4.37329 19.085 4.17193 19.2864Z" fill="#0D022B"/>
<path d="M5.43146 18.7561C5.2301 18.5547 5.2301 18.2282 5.43146 18.0268C5.63283 17.8255 5.9593 17.8255 6.16067 18.0268C6.36203 18.2282 6.36203 18.5547 6.16067 18.7561C5.9593 18.9574 5.63283 18.9574 5.43146 18.7561Z" fill="#0D022B"/>
<path d="M6.691 16.7673C6.48963 16.9687 6.48963 17.2952 6.691 17.4965C6.89236 17.6979 7.21883 17.6979 7.4202 17.4965C7.62156 17.2952 7.62156 16.9687 7.4202 16.7673C7.21883 16.5659 6.89236 16.5659 6.691 16.7673Z" fill="#0D022B"/>
<path d="M7.95053 16.237C7.74917 16.0356 7.74917 15.7091 7.95053 15.5078C8.15189 15.3064 8.47837 15.3064 8.67973 15.5078C8.8811 15.7091 8.8811 16.0356 8.67973 16.237C8.47837 16.4383 8.15189 16.4383 7.95053 16.237Z" fill="#0D022B"/>
<path d="M9.21006 14.2482C9.0087 14.4496 9.0087 14.7761 9.21006 14.9774C9.41143 15.1788 9.7379 15.1788 9.93927 14.9774C10.1406 14.7761 10.1406 14.4496 9.93927 14.2482C9.7379 14.0469 9.41143 14.0469 9.21006 14.2482Z" fill="#0D022B"/>
<path d="M10.4696 13.7179C10.2682 13.5166 10.2682 13.1901 10.4696 12.9887C10.671 12.7873 10.9974 12.7873 11.1988 12.9887C11.4002 13.1901 11.4002 13.5166 11.1988 13.7179C10.9974 13.9193 10.671 13.9193 10.4696 13.7179Z" fill="#0D022B"/>
<path d="M11.7291 11.7292C11.5278 11.9305 11.5278 12.257 11.7291 12.4584C11.9305 12.6597 12.257 12.6597 12.4583 12.4584C12.6597 12.257 12.6597 11.9305 12.4583 11.7292C12.257 11.5278 11.9305 11.5278 11.7291 11.7292Z" fill="#0D022B"/>
<path d="M12.9887 11.1988C12.7873 10.9975 12.7873 10.671 12.9887 10.4696C13.19 10.2683 13.5165 10.2683 13.7179 10.4696C13.9192 10.671 13.9192 10.9975 13.7179 11.1988C13.5165 11.4002 13.19 11.4002 12.9887 11.1988Z" fill="#0D022B"/>
<path d="M14.2482 9.21011C14.0468 9.41147 14.0468 9.73795 14.2482 9.93931C14.4496 10.1407 14.776 10.1407 14.9774 9.93931C15.1788 9.73795 15.1788 9.41147 14.9774 9.21011C14.776 9.00875 14.4496 9.00875 14.2482 9.21011Z" fill="#0D022B"/>
<path d="M15.5077 8.67978C15.3064 8.47841 15.3064 8.15194 15.5077 7.95058C15.7091 7.74921 16.0356 7.74921 16.2369 7.95058C16.4383 8.15194 16.4383 8.47841 16.2369 8.67978C16.0356 8.88114 15.7091 8.88114 15.5077 8.67978Z" fill="#0D022B"/>
<path d="M16.7673 6.69104C16.5659 6.89241 16.5659 7.21888 16.7673 7.42024C16.9686 7.62161 17.2951 7.62161 17.4965 7.42024C17.6978 7.21888 17.6978 6.89241 17.4965 6.69104C17.2951 6.48968 16.9686 6.48968 16.7673 6.69104Z" fill="#0D022B"/>
<path d="M18.0268 6.16071C17.8254 5.95935 17.8254 5.63287 18.0268 5.43151C18.2282 5.23014 18.5546 5.23014 18.756 5.43151C18.9574 5.63287 18.9574 5.95935 18.756 6.16071C18.5546 6.36208 18.2282 6.36208 18.0268 6.16071Z" fill="#0D022B"/>
</svg>
