<svg width="24" height="24" viewBox="0 0 24 24" fill="none" xmlns="http://www.w3.org/2000/svg">
<path d="M12 24C18.6274 24 24 18.6274 24 12C24 5.37258 18.6274 0 12 0C5.37258 0 0 5.37258 0 12C0 18.6274 5.37258 24 12 24Z" fill="#7866D5"/>
<path d="M16.9091 6.01673C17.2902 6.06692 17.6871 6.10038 18.0682 6.16731C18.8145 6.31788 19.0686 6.71941 18.9416 7.52248C18.9098 7.82363 18.6875 8.05786 18.4017 8.10805C18.227 8.14151 18.0365 8.15824 17.8618 8.14151C15.3847 8.14151 12.9235 8.15824 10.4464 8.15824C10.0812 8.15824 9.70012 8.1917 9.33491 8.25863C8.11224 8.45939 7.63588 8.99477 7.54061 10.2998C7.49297 10.9021 7.49297 10.9021 8.08048 10.9021H17.9253C18.0206 10.9021 18.1159 10.9021 18.2111 10.9021C18.3699 10.9021 18.5128 10.9522 18.6558 11.0359C19.1004 11.3371 18.9892 11.8222 18.9733 12.2572C18.9575 12.6086 18.751 12.8093 18.4017 12.8763C18.2588 12.9097 18.1159 12.9097 17.9571 12.9097C14.5908 12.9097 11.2245 12.9097 7.85818 12.9097C7.49297 12.9097 7.49297 12.9097 7.52473 13.2945C7.54061 13.6459 7.57236 13.9972 7.65176 14.3486C7.81054 14.9843 8.17576 15.3858 8.79503 15.5699C9.46194 15.7707 10.1606 15.8041 10.8434 15.8208C13.2411 15.8208 15.6547 15.8208 18.0682 15.8208C18.3699 15.8208 18.6558 15.8543 18.8463 16.1555C19.148 16.6574 18.9892 17.3099 18.5128 17.6277C18.4493 17.6779 18.3858 17.7114 18.3064 17.7281C17.7824 17.9122 17.2425 17.9456 16.6868 17.9624C14.4161 18.0125 12.1613 18.0125 9.90654 17.9624C9.20788 17.9456 8.50921 17.862 7.82642 17.7114C6.22267 17.3601 5.41285 16.4901 5.14291 14.7835C5.07939 14.3987 5.04764 13.9972 5 13.5957V10.4838C5.03176 10.1826 5.06352 9.86476 5.09527 9.56361C5.3017 7.6396 6.12739 6.68595 7.9217 6.25096C8.55685 6.10038 9.22376 6.06692 9.85891 6L16.9091 6.01673Z" fill="white"/>
</svg>
