<svg width="24" height="24" viewBox="0 0 24 24" fill="none" xmlns="http://www.w3.org/2000/svg">
<path d="M0 12C0 5.37258 5.37258 0 12 0C18.6274 0 24 5.37258 24 12C24 18.6274 18.6274 24 12 24C5.37258 24 0 18.6274 0 12Z" fill="white"/>
<path d="M5.2085 12.9811C7.60172 14.252 10.099 15.5824 12.0278 16.6118L18.7912 12.9811C16.3423 16.6192 14.3018 19.648 12.0278 23C9.74969 19.6554 7.23385 15.9648 5.2085 12.9811ZM5.46862 11.9776L12.0352 8.47359L18.5162 11.9519L12.0389 15.4598L5.46862 11.9776ZM12.0278 7.35097L5.2085 10.9408L11.998 1L18.7912 10.9631L12.0278 7.35097Z" fill="#3AB83A"/>
<path d="M18.7912 12.9811L12.0277 16.6118V23C12.0277 23 16.3422 16.6192 18.7912 12.9811Z" fill="#0B8311"/>
<path d="M18.5162 11.9519L12.0351 8.47359L12.0372 12.5164L12.0354 12.5166L5.46851 11.9777L12.0387 15.4635L18.5164 11.9554L18.5085 11.9561L18.5162 11.9519Z" fill="#0B8311"/>
<path d="M11.9979 1L12.0277 7.35123L18.7912 10.9631L11.9979 1Z" fill="#0B8311"/>
<path d="M12.0356 12.5167L18.5167 11.9556L12.0393 15.4637L12.0356 12.5167Z" fill="#146714"/>
</svg>
