<svg width="24" height="24" viewBox="0 0 24 24" fill="none" xmlns="http://www.w3.org/2000/svg">
<path d="M0 12C0 5.37258 5.37258 0 12 0C18.6274 0 24 5.37258 24 12C24 18.6274 18.6274 24 12 24C5.37258 24 0 18.6274 0 12Z" fill="white"/>
<path d="M3.30765 6.3221C3.27816 6.30314 3.25134 6.2859 3.21354 6.2778C3.22133 6.25054 3.22246 6.24231 3.22715 6.23776C3.23207 6.23301 3.24089 6.23229 3.26534 6.21802L3.88299 5.87533C3.89999 5.86683 3.91476 5.85981 3.92856 5.85326C3.96005 5.8383 3.98644 5.82577 4.02246 5.8036C4.0758 5.76723 4.1321 5.73971 4.18866 5.71207C4.22504 5.69428 4.26153 5.67645 4.29741 5.65617C4.30826 5.64965 4.3132 5.64787 4.31932 5.64567C4.32443 5.64382 4.33036 5.64168 4.34124 5.63624L4.9828 5.28558C5.01016 5.27295 5.03085 5.26032 5.0525 5.24711C5.07184 5.2353 5.09196 5.22303 5.11828 5.20987L5.54067 4.98273C5.56599 4.96586 5.5913 4.95457 5.61602 4.94354C5.638 4.93373 5.65951 4.92413 5.68014 4.911C5.69519 4.90348 5.70314 4.89773 5.71153 4.89166C5.7209 4.88487 5.73084 4.87769 5.75187 4.86717L5.95111 4.75958C5.98735 4.74267 6.01041 4.72869 6.03449 4.71408C6.05013 4.7046 6.0662 4.69485 6.08659 4.68387L8.29418 3.49241C8.342 3.46452 8.38185 3.44459 8.43365 3.42068L11.5856 1.71518C11.608 1.70466 11.6564 1.67766 11.7127 1.6462C11.8272 1.5823 11.9747 1.5 12.0041 1.5C12.0559 1.5 12.4822 1.73909 12.5739 1.79488L14.0283 2.58387C14.0366 2.58801 14.0435 2.5912 14.0501 2.59426C14.0625 2.60002 14.0739 2.60534 14.0921 2.61575C14.118 2.6297 14.1389 2.64165 14.1598 2.6536C14.1808 2.66556 14.2017 2.67751 14.2276 2.69146L15.3354 3.28918C15.3832 3.32106 15.4151 3.337 15.4708 3.36489L18.2244 4.85123C18.3628 4.93933 18.5087 5.01252 18.6561 5.0865C18.6954 5.10621 18.7349 5.12598 18.7743 5.14611L19.3202 5.44497C19.4729 5.51802 19.6257 5.60338 19.7784 5.68873C19.9006 5.75701 20.0228 5.8253 20.145 5.88728L20.691 6.18615C20.6976 6.19 20.7042 6.1937 20.7107 6.19735C20.7514 6.22015 20.7888 6.24112 20.8025 6.28577C20.7441 6.29967 20.5498 6.41648 20.4053 6.50338C20.3427 6.54097 20.2895 6.57297 20.2606 6.58861L19.7227 6.89544C19.6408 6.94029 19.5817 6.97977 19.535 7.01096C19.4156 7.09064 19.3773 7.11622 19.2485 7.0389C19.2102 7.01658 19.1924 7.00702 19.1602 6.98981C19.1522 6.9855 19.1433 6.98072 19.1329 6.97514L17.6266 6.15825C17.4912 6.09051 17.3587 6.01579 17.2262 5.94108C17.0937 5.86636 16.9612 5.79165 16.8257 5.72391C16.5866 5.60436 15.9092 5.24971 15.686 5.11025L13.1517 3.74345C13.1123 3.72658 13.0948 3.71566 13.071 3.70088C13.0611 3.69473 13.0502 3.6879 13.0361 3.6797C13.0066 3.66201 12.9837 3.65086 12.9576 3.63819C12.9485 3.63373 12.9389 3.62909 12.9285 3.62391C12.8726 3.59524 12.753 3.52821 12.6178 3.45248C12.3586 3.30716 12.0421 3.12979 12.008 3.12979L11.0756 3.62789C11.0603 3.63705 11.0491 3.64446 11.0389 3.65123C11.0225 3.66213 11.0085 3.67139 10.9839 3.68368L8.69267 4.91897C8.67673 4.92694 8.66079 4.93466 8.64485 4.94238C8.59703 4.96555 8.54922 4.98871 8.5014 5.01859C8.47324 5.03737 8.4549 5.04631 8.42903 5.05894C8.42196 5.06239 8.41432 5.06612 8.40576 5.0704C8.38113 5.08271 8.37173 5.08894 8.35873 5.09754C8.35069 5.10286 8.34129 5.10908 8.32606 5.11821L6.48906 6.11043C6.46347 6.12483 6.43916 6.13666 6.41536 6.14824C6.37987 6.1655 6.34552 6.18222 6.30974 6.20607C6.28653 6.22025 6.26541 6.23027 6.24596 6.23948C6.20532 6.25874 6.17203 6.27452 6.14238 6.31765C6.18359 6.32647 6.19653 6.3353 6.21654 6.34895C6.22362 6.35378 6.23159 6.35921 6.242 6.36546L8.35396 7.58482C8.36746 7.59232 8.37927 7.59813 8.39066 7.60373C8.40952 7.613 8.42723 7.62171 8.44959 7.63662C8.46553 7.64658 8.48047 7.65555 8.49542 7.66451C8.51036 7.67348 8.5253 7.68244 8.54124 7.69241L10.191 8.64079C10.2159 8.65502 10.2423 8.67083 10.2697 8.68717C10.3037 8.70744 10.339 8.72852 10.3743 8.74838C10.5107 8.8195 10.6416 8.8999 10.7724 8.98017C10.9126 9.06631 11.0527 9.15231 11.1991 9.22656L12.012 9.69677C12.0997 9.64895 12.1754 9.60512 12.2591 9.55332C12.2989 9.52542 12.3348 9.50151 12.3786 9.4776C12.6223 9.34486 12.861 9.20381 13.0996 9.06279C13.3839 8.8948 13.6681 8.72686 13.9606 8.57305L15.3115 9.35009C15.3182 9.35415 15.3241 9.35741 15.3292 9.36025C15.3541 9.37414 15.3613 9.37814 15.3712 9.41783C15.3121 9.43261 15.2552 9.46929 15.2021 9.50352C15.1836 9.51545 15.1656 9.52708 15.1481 9.53738L14.7257 9.78045C14.7179 9.78469 14.7108 9.78854 14.7041 9.79216C14.673 9.80897 14.6516 9.82055 14.6221 9.84022C14.6077 9.84819 14.5947 9.85616 14.5816 9.86413C14.562 9.87609 14.5424 9.88804 14.5185 9.9L13.8849 10.2586C13.8466 10.2834 13.8095 10.3044 13.7716 10.3259C13.7424 10.3424 13.7128 10.3591 13.6817 10.3782L13.2633 10.6252C13.2254 10.6472 13.1925 10.6661 13.1596 10.6851C13.1267 10.704 13.0939 10.7229 13.056 10.7448C13.0202 10.7667 12.9863 10.7846 12.9524 10.8026C12.9186 10.8205 12.8847 10.8384 12.8488 10.8603L12.6337 10.9879C12.6178 10.9975 12.5953 11.0114 12.5683 11.0281C12.4048 11.1292 12.073 11.3345 12.008 11.3345C11.9562 11.3345 11.4422 11.0237 11.2987 10.936C11.2748 10.9221 11.2539 10.9092 11.233 10.8962C11.2121 10.8833 11.1912 10.8703 11.1672 10.8564L9.93992 10.151C9.72993 10.0176 9.51273 9.89738 9.29558 9.77719C9.11715 9.67842 8.93874 9.57967 8.76439 9.47362C8.752 9.46654 8.7459 9.4626 8.7398 9.45866C8.73217 9.45375 8.72455 9.44883 8.70462 9.43776L7.87976 8.95958C7.85262 8.94601 7.82932 8.93243 7.80477 8.91813C7.78609 8.90724 7.76667 8.89592 7.74428 8.88387L7.6088 8.80816C7.2527 8.59293 6.89083 8.38923 6.52933 8.18574C6.1546 7.9748 5.78027 7.76409 5.41316 7.54098L3.89893 6.66432C3.7946 6.61216 3.69738 6.55288 3.60017 6.4936C3.51915 6.4442 3.43814 6.3948 3.35301 6.34952C3.33631 6.34053 3.32167 6.33112 3.30765 6.3221Z" fill="#060606"/>
<path d="M2.65967 17.0367C2.9147 17.1722 3.24942 17.3794 3.48851 17.5388C3.5404 17.5742 3.59647 17.6068 3.65343 17.6399C3.69271 17.6627 3.7324 17.6858 3.77143 17.7102C3.79186 17.7227 3.8092 17.7328 3.82563 17.7424C3.85086 17.7571 3.87397 17.7705 3.90293 17.7899C3.90988 17.7945 3.9165 17.7991 3.92297 17.8037C3.93873 17.8147 3.95375 17.8252 3.97067 17.8337C3.98462 17.8417 3.99558 17.8476 4.00654 17.8536C4.0175 17.8596 4.02845 17.8656 4.0424 17.8735L7.11071 19.7623C7.13545 19.7758 7.15891 19.7906 7.18326 19.8059C7.20205 19.8177 7.22138 19.8299 7.24221 19.842L10.0276 21.5595C10.0404 21.5675 10.05 21.5729 10.0588 21.5779C10.0717 21.5852 10.0827 21.5914 10.0993 21.6033L11.4303 22.4202C11.4502 22.4309 11.4662 22.4424 11.4811 22.4532C11.5109 22.4747 11.5366 22.4933 11.5817 22.4959V12.0956L11.1593 11.8525C11.1288 11.8372 11.1076 11.8243 11.0815 11.8084L11.0557 11.7927L10.7249 11.6014C10.4936 11.4799 10.2699 11.3448 10.0459 11.2095C9.81465 11.0698 9.58305 10.93 9.34221 10.8045C9.3206 10.7937 9.3055 10.7845 9.29066 10.7755C9.27267 10.7645 9.25503 10.7538 9.22665 10.7407L8.80426 10.4976C8.70065 10.4339 8.23044 10.151 8.14676 10.131V11.7728L9.87618 12.773L9.91855 12.798C9.94586 12.8142 9.97008 12.8285 9.99971 12.8447C10.0155 12.8526 10.0287 12.861 10.0415 12.869C10.0673 12.8853 10.0912 12.9005 10.1312 12.9085V19.9496C9.90672 19.799 9.67129 19.6593 9.4379 19.5208C9.35643 19.4725 9.27519 19.4243 9.19477 19.3758L8.44164 18.9096C8.28186 18.8017 8.11559 18.7035 7.94959 18.6055C7.79682 18.5153 7.64429 18.4252 7.49724 18.3278C7.47931 18.3158 7.46536 18.3079 7.45141 18.2999C7.43747 18.2919 7.42352 18.284 7.40559 18.272L6.74012 17.8616C6.6684 17.8217 6.61659 17.7899 6.54885 17.742C6.41381 17.6513 6.27262 17.5667 6.13143 17.482C6.01848 17.4143 5.90552 17.3467 5.79572 17.2758C5.76185 17.2539 5.73097 17.236 5.70008 17.218C5.6692 17.2001 5.63832 17.1822 5.60445 17.1603C5.34089 16.9826 5.06291 16.8174 4.78828 16.6541C4.68091 16.5903 4.57406 16.5267 4.46878 16.4629C4.43691 16.443 4.40903 16.4231 4.38115 16.4032L4.09022 16.2238V7.77203C4.03443 7.73617 3.97864 7.70429 3.91489 7.66842C3.85113 7.63256 3.80331 7.60467 3.73955 7.56482L2.84297 7.05476C2.81081 7.03773 2.78224 7.01981 2.75428 7.00226C2.72334 6.98286 2.69315 6.96391 2.65967 6.94717V17.0367Z" fill="#060606"/>
<path d="M12.4424 12.0797V16.0765L12.9724 15.7776C13.0939 15.7139 13.2105 15.6431 13.327 15.5724C13.4436 15.5017 13.5601 15.4309 13.6817 15.3672L13.6936 15.3607C13.7287 15.3416 13.7445 15.333 13.7733 15.3114C13.7946 15.2981 13.8158 15.2884 13.8371 15.2786C13.8477 15.2738 13.8583 15.2689 13.869 15.2636V12.9085C13.9168 12.8966 13.9327 12.8886 13.9686 12.8647C13.9909 12.8498 14.0086 12.8411 14.0275 12.8318C14.0389 12.8262 14.0507 12.8204 14.0642 12.8129C14.135 12.7722 14.2053 12.7287 14.2756 12.6851C14.3912 12.6135 14.5071 12.5416 14.6261 12.4822C14.8245 12.3845 15.0159 12.2681 15.2057 12.1527C15.2636 12.1175 15.3214 12.0823 15.3792 12.0478C15.4221 12.0237 15.4596 12.0014 15.5001 11.9772C15.5199 11.9655 15.5403 11.9533 15.5625 11.9402L15.9371 11.729C15.957 11.7171 15.9699 11.7091 15.9829 11.7011C15.9958 11.6932 16.0089 11.6852 16.0287 11.6732C16.1122 11.6305 16.1925 11.5805 16.2735 11.5301C16.351 11.4818 16.429 11.4332 16.5109 11.3903L16.6942 11.2827C16.7154 11.2695 16.7367 11.2597 16.758 11.25C16.7686 11.2451 16.7792 11.2402 16.7898 11.2349L18.0132 10.5256C18.1467 10.4558 18.2749 10.3785 18.4028 10.3015C18.5229 10.2291 18.6427 10.1569 18.7663 10.0913L19.1449 9.86813C19.192 9.84012 19.2387 9.8132 19.2851 9.78636C19.3643 9.74066 19.4431 9.69518 19.5234 9.64498C19.5472 9.63101 19.5694 9.6185 19.5909 9.60644C19.6308 9.5841 19.6679 9.56326 19.7067 9.53739L19.906 9.42581V16.2438C19.8655 16.2525 19.846 16.2653 19.8202 16.2824C19.8104 16.2888 19.7996 16.2959 19.7864 16.3036L19.4357 16.5188L19.4017 16.5418C19.3795 16.5569 19.3574 16.5719 19.3282 16.5905C19.3017 16.6059 19.2801 16.6202 19.2594 16.6338C19.2426 16.6449 19.2264 16.6556 19.2086 16.6662C19.1867 16.6782 19.1698 16.6891 19.1528 16.7001C19.1359 16.7111 19.119 16.722 19.097 16.734L18.7424 16.9452C18.583 17.0368 18.4286 17.1344 18.2742 17.232C18.1198 17.3297 17.9653 17.4273 17.806 17.519L16.8735 18.0968C16.8516 18.1107 16.8347 18.1207 16.8177 18.1306C16.8008 18.1406 16.7838 18.1506 16.7619 18.1645C16.5345 18.3183 16.2988 18.458 16.0631 18.5976C15.8653 18.7148 15.6676 18.832 15.4748 18.9575C15.428 18.9896 15.3796 19.0186 15.3315 19.0474C15.302 19.0651 15.2725 19.0828 15.2437 19.101L14.0762 19.8182C14.0403 19.8381 14.0005 19.862 13.9646 19.886C13.7912 19.9995 13.6139 20.1051 13.4366 20.2107C13.2593 20.3163 13.082 20.4219 12.9086 20.5355L12.4344 20.8264V22.5C12.494 22.4851 12.5804 22.4278 12.6502 22.3815C12.6737 22.366 12.6953 22.3516 12.7134 22.3406C12.753 22.3158 12.7919 22.2931 12.8307 22.2705C12.8856 22.2385 12.9403 22.2066 12.9963 22.1693C13.1298 22.0796 13.2692 21.9979 13.4087 21.9162C13.5482 21.8345 13.6876 21.7528 13.8211 21.6632C13.8429 21.6498 13.8626 21.6371 13.8816 21.6248C13.9079 21.6079 13.9329 21.5917 13.9606 21.5755L14.6659 21.1412C14.6898 21.1272 14.7108 21.1143 14.7317 21.1013C14.7526 21.0884 14.7735 21.0754 14.7974 21.0615L18.5511 18.7503C18.6029 18.7184 18.6468 18.6905 18.6906 18.6626L21.197 17.1205C21.2449 17.0886 21.2927 17.0607 21.3405 17.0368V6.96319C21.2912 6.97414 21.2701 6.98886 21.2437 7.00733C21.2316 7.01575 21.2185 7.02494 21.201 7.03492C21.1492 7.06281 21.1134 7.08274 21.0655 7.11063L20.2327 7.59279C20.1051 7.66111 19.9815 7.73672 19.8579 7.81231C19.7076 7.90428 19.5573 7.99623 19.3999 8.07496L17.1724 9.35807C17.1138 9.39085 17.0622 9.42225 17.0101 9.4539C16.9736 9.47611 16.9369 9.49844 16.8974 9.52145L16.487 9.76054C16.1961 9.90797 15.7737 10.159 15.5067 10.3264C15.4828 10.3423 15.4609 10.3533 15.439 10.3642C15.4171 10.3752 15.3951 10.3862 15.3712 10.4021L14.4667 10.9281C14.4433 10.9398 14.4364 10.9446 14.4266 10.9514C14.4197 10.9562 14.4114 10.962 14.3949 10.9719L14.112 11.1273C14.0283 11.1712 13.9496 11.22 13.8709 11.2688C13.7922 11.3176 13.7135 11.3664 13.6299 11.4103C13.6088 11.4208 13.5989 11.428 13.5895 11.4347C13.5811 11.4408 13.5732 11.4466 13.5581 11.4541L13.2752 11.6095C13.2027 11.645 13.0843 11.7186 12.9575 11.7975C12.7568 11.9223 12.5352 12.0602 12.4424 12.0797Z" fill="#060606"/>
</svg>
