<svg xmlns="http://www.w3.org/2000/svg" width="24" height="24" fill="none" viewBox="0 0 24 24">
  <path fill="url(#a)" d="M0 12C0 5.373 5.373 0 12 0s12 5.373 12 12-5.373 12-12 12S0 18.627 0 12Z"/>
  <path fill="#272324" d="M11 5.25a.5.5 0 0 0-1 0v2.5H6.75v8H10v2.5a.5.5 0 0 0 1 0v-2.5h2v2.5a.5.5 0 0 0 1 0v-2.5h3.25V11H10.5a.5.5 0 0 0 0 1h5.75v2.75h-8.5v-6h9a.5.5 0 0 0 0-1H14v-2.5a.5.5 0 0 0-1 0v2.5h-2v-2.5Z"/>
  <path fill="#272324" fill-rule="evenodd" d="M2 12C2 6.477 6.477 2 12 2s10 4.477 10 10-4.477 10-10 10S2 17.523 2 12Zm10 9a9 9 0 1 1 0-18 9 9 0 0 1 0 18Z" clip-rule="evenodd"/>
  <defs>
    <linearGradient id="a" x1="0" x2="24" y1="0" y2="24" gradientUnits="userSpaceOnUse">
      <stop stop-color="#D5B55E"/>
      <stop offset="1" stop-color="#DEC77B"/>
    </linearGradient>
  </defs>
</svg>
