<svg width="24" height="24" viewBox="0 0 24 24" fill="none" xmlns="http://www.w3.org/2000/svg">
<path d="M12 24C18.6274 24 24 18.6274 24 12C24 5.37258 18.6274 0 12 0C5.37258 0 0 5.37258 0 12C0 18.6274 5.37258 24 12 24Z" fill="#794FDD"/>
<path d="M8.31368 14.757C8.20707 14.757 8.10045 14.7324 8.00204 14.675L4.31163 12.5428C4.12301 12.4362 4 12.2312 4 12.0097V7.74526C4 7.52383 4.1148 7.31881 4.31163 7.2122L8.00204 5.07996C8.19066 4.97335 8.42849 4.97335 8.61711 5.07996L12.3075 7.2122C12.4961 7.31881 12.6192 7.52383 12.6192 7.74526V9.0328C12.6192 9.36904 12.3403 9.64787 12.0041 9.64787C11.6679 9.64787 11.389 9.36904 11.389 9.0328V8.0979L8.31368 6.3183L5.23834 8.0979V11.6489L8.31368 13.4285L11.6925 11.4767C11.9877 11.3045 12.3649 11.4111 12.529 11.6981C12.7012 11.9933 12.5946 12.3706 12.3075 12.5346L8.61711 14.6668C8.5269 14.7242 8.42029 14.757 8.31368 14.757Z" fill="white"/>
<path d="M15.6945 19.0133C15.5879 19.0133 15.4813 18.9887 15.3829 18.9313L11.6925 16.7991C11.5038 16.6925 11.3808 16.4874 11.3808 16.266V14.9129C11.3808 14.5766 11.6597 14.2978 11.9959 14.2978C12.3321 14.2978 12.611 14.5766 12.611 14.9129V15.9134L15.6863 17.693L18.7617 15.9134V12.3624L15.6863 10.5828L12.3075 12.5346C12.0123 12.7068 11.6351 12.6002 11.471 12.3132C11.2988 12.0179 11.4054 11.6407 11.6925 11.4767L15.3829 9.34444C15.5715 9.23783 15.8093 9.23783 15.9979 9.34444L19.6884 11.4767C19.877 11.5833 20 11.7883 20 12.0097V16.2742C20 16.4956 19.8852 16.7007 19.6884 16.8073L15.9979 18.9395C15.9077 18.9887 15.8011 19.0133 15.6945 19.0133Z" fill="white"/>
</svg>
