<svg width="24" height="24" viewBox="0 0 24 24" fill="none" xmlns="http://www.w3.org/2000/svg">
<g clip-path="url(#clip0_286_97)">
<path d="M0 12C0 5.37258 5.37258 0 12 0C18.6274 0 24 5.37258 24 12C24 18.6274 18.6274 24 12 24C5.37258 24 0 18.6274 0 12Z" fill="url(#paint0_linear_286_97)"/>
<path d="M6.0936 15.6001V9.95209L10.3768 13.1757V15.6001H11.47V12.9481C11.4698 12.8495 11.4468 12.7524 11.4027 12.6642C11.3586 12.5761 11.2947 12.4994 11.216 12.4401L6.0216 8.52929C5.92659 8.45872 5.81388 8.41588 5.69598 8.40553C5.57809 8.39518 5.45963 8.41772 5.35378 8.47064C5.24792 8.52357 5.15882 8.60481 5.09636 8.70534C5.03391 8.80587 5.00055 8.92174 5 9.04009V15.6001H6.0936ZM17.9392 15.6001V9.95209L13.656 13.1757V15.6001H12.5628V12.9481C12.563 12.8495 12.586 12.7524 12.6301 12.6642C12.6742 12.5761 12.7381 12.4994 12.8168 12.4401L18.0112 8.53089C18.1061 8.4604 18.2187 8.41758 18.3364 8.40716C18.4542 8.39674 18.5725 8.41914 18.6783 8.47188C18.7841 8.52461 18.8732 8.60562 18.9358 8.70592C18.9984 8.80621 19.032 8.92188 19.0328 9.04009V15.6001H17.9392Z" fill="white"/>
</g>
<defs>
<linearGradient id="paint0_linear_286_97" x1="12" y1="0" x2="12" y2="24" gradientUnits="userSpaceOnUse">
<stop stop-color="#4FA89B"/>
<stop offset="1" stop-color="#6ACEBB"/>
</linearGradient>
<clipPath id="clip0_286_97">
<rect width="24" height="24" fill="white"/>
</clipPath>
</defs>
</svg>
