<svg width="24" height="24" viewBox="0 0 24 24" fill="none"
  xmlns="http://www.w3.org/2000/svg">
  <path d="M12 24C18.6274 24 24 18.6274 24 12C24 5.37258 18.6274 0 12 0C5.37258 0 0 5.37258 0 12C0 18.6274 5.37258 24 12 24Z" fill="#0C68F4"/>
  <path d="M7.44852 5L8.10741 5.65889L7.44852 6.31353L6.79388 5.65889L7.44852 5ZM7.45702 10.8407C6.69753 10.8407 6.09815 10.6494 5.65889 10.2669C5.21963 9.88712 5 9.3515 5 8.66002C5 8.03939 5.14028 7.41451 5.42084 6.78538L5.9267 6.95116C5.77933 7.4301 5.70565 7.84668 5.70565 8.20093C5.70565 9.16446 6.29652 9.64623 7.47827 9.64623C7.70499 9.64623 7.92745 9.62073 8.14566 9.56972C8.36671 9.52154 8.56934 9.45069 8.75354 9.35717C8.94058 9.26648 9.09078 9.14463 9.20414 8.99159C9.31749 8.83856 9.37417 8.66852 9.37417 8.48149C9.37417 8.35963 9.31749 8.16408 9.20414 7.89486C9.09361 7.62564 8.96609 7.36633 8.82156 7.11695L9.41668 6.22851C9.47053 6.14349 9.53712 6.16191 9.61647 6.28377C9.96221 6.83072 10.1351 7.45702 10.1351 8.16267C10.1351 9.01001 9.90128 9.66749 9.43369 10.1351C8.96892 10.6055 8.31003 10.8407 7.45702 10.8407Z" fill="white"/>
  <path d="M7.4626 13.9839C7.46826 14.4799 7.47393 14.7576 7.4796 14.8171C7.50511 15.0835 7.58304 15.2592 7.7134 15.3442C7.81825 15.4122 7.97412 15.4462 8.181 15.4462H8.29577C8.36662 15.4462 8.40204 15.5837 8.40204 15.8586V16.1689C8.40204 16.5203 8.36662 16.696 8.29577 16.696H8.15974C7.9472 16.696 7.76016 16.6733 7.59863 16.628C7.43993 16.5827 7.30673 16.5217 7.19904 16.4452C7.09135 16.3659 7.00067 16.2624 6.92698 16.1349C6.85614 16.0074 6.80087 15.8742 6.7612 15.7353C6.72152 15.5936 6.69177 15.4264 6.67193 15.2337C6.65493 15.0382 6.64359 14.8469 6.63792 14.6598C6.63509 14.47 6.63225 14.2532 6.62942 14.0094C6.62942 13.9783 6.62942 13.9556 6.62942 13.9414C6.62942 13.9244 6.62942 13.9032 6.62942 13.8777C6.62942 13.8522 6.62942 13.8281 6.62942 13.8054C6.62092 12.9581 6.54528 12.8914 6.40075 11.9959L7.15741 11.5198C7.2736 11.4489 7.34162 11.4206 7.36145 11.4347C7.38412 11.4489 7.39829 11.5268 7.40396 11.6685C7.42097 12.037 7.4408 12.077 7.4626 13.9839Z" fill="white"/>
  <path d="M8.25751 16.696C8.10165 16.696 8.02372 16.492 8.02372 16.0839V15.9436C8.02372 15.612 8.10165 15.4462 8.25751 15.4462H8.36804C8.55224 15.4462 8.73928 15.3981 8.92916 15.3017C9.11903 15.2054 9.27915 15.0637 9.40951 14.8766C9.50586 14.7406 9.57813 14.6372 9.6263 14.5663C9.67731 14.4955 9.74391 14.4062 9.8261 14.2985C9.91111 14.188 9.98054 14.1044 10.0344 14.0477C10.0882 13.991 10.1534 13.9273 10.2299 13.8564C10.3093 13.7856 10.3815 13.7331 10.4467 13.6991C10.5119 13.6651 10.5842 13.6368 10.6635 13.6141C10.7457 13.5886 10.8279 13.5759 10.9101 13.5759C11.1651 13.5759 11.3975 13.6708 11.6072 13.8607C11.8169 14.0477 11.9756 14.2843 12.0833 14.5706C12.1938 14.8568 12.2491 15.1515 12.2491 15.4548C12.2491 15.7807 12.14 16.0924 11.9218 16.3899C11.7064 16.6847 11.4797 16.832 11.2416 16.832C10.7854 16.832 10.2398 16.5501 9.60505 15.9861C9.41801 16.2157 9.21255 16.3914 8.98867 16.5132C8.76762 16.6351 8.55508 16.696 8.35103 16.696H8.25751ZM11.2459 15.6971C11.4528 15.6971 11.5562 15.6106 11.5562 15.4377C11.5562 15.2365 11.4924 15.0353 11.3649 14.8341C11.2374 14.6329 11.0943 14.5323 10.9356 14.5323C10.8591 14.5323 10.784 14.5493 10.7103 14.5833C10.6394 14.6173 10.5714 14.6683 10.5062 14.7364C10.4411 14.8015 10.3886 14.8596 10.349 14.9106C10.3121 14.9588 10.2682 15.0212 10.2172 15.0977C10.6593 15.4973 11.0022 15.6971 11.2459 15.6971Z" fill="white"/>
  <path d="M14.4213 15.476C14.4213 15.476 14.6169 15.476 15.0079 15.476C14.8691 14.9064 14.6069 14.6216 14.2215 14.6216C14.0713 14.6216 13.9466 14.6712 13.8474 14.7704C13.7511 14.8667 13.7029 14.9971 13.7029 15.1614C13.7029 15.2975 13.7539 15.3839 13.8559 15.4207C13.9608 15.4576 14.1493 15.476 14.4213 15.476ZM12.942 18.1923C14.0529 17.7672 14.7047 17.2685 14.8974 16.696C14.6509 16.696 14.4369 16.6875 14.2555 16.6705C14.0742 16.6507 13.9013 16.6167 13.7369 16.5685C13.5754 16.5203 13.4436 16.4551 13.3416 16.3729C13.2396 16.2879 13.1588 16.1788 13.0993 16.0456C13.0426 15.9096 13.0143 15.7495 13.0143 15.5653C13.0143 15.3357 13.044 15.1048 13.1035 14.8724C13.1659 14.64 13.2523 14.4275 13.3628 14.2347C13.4734 14.0392 13.6151 13.8805 13.7879 13.7586C13.9636 13.6368 14.1535 13.5759 14.3576 13.5759C14.5673 13.5759 14.7557 13.6297 14.9229 13.7374C15.093 13.8422 15.2304 13.9854 15.3353 14.1667C15.4401 14.3481 15.5237 14.5465 15.5861 14.7619C15.6484 14.9772 15.6881 15.2054 15.7051 15.4462H16.1387C16.2095 15.4462 16.245 15.5837 16.245 15.8586V16.1689C16.245 16.5203 16.2095 16.696 16.1387 16.696H15.6371C15.5776 17.0276 15.4798 17.3308 15.3438 17.6057C15.2077 17.8834 15.0618 18.1045 14.9059 18.2688C14.7501 18.436 14.5857 18.5763 14.4128 18.6897C14.2428 18.8059 14.0926 18.8866 13.9622 18.932C13.8347 18.9773 13.727 19 13.6392 19C13.5145 19 13.3869 18.9589 13.2566 18.8767L12.8527 18.6217C12.7337 18.5452 12.6614 18.4856 12.6359 18.4431C12.6076 18.4006 12.6147 18.3624 12.6572 18.3284C12.7025 18.2944 12.7975 18.249 12.942 18.1923Z" fill="white"/>
  <path d="M18.4979 14.6938C18.4979 15.3286 18.3293 15.8217 17.9921 16.1732C17.6548 16.5217 17.1787 16.696 16.5638 16.696H16.0962C15.9403 16.696 15.8624 16.492 15.8624 16.0839V15.9436C15.8624 15.612 15.9403 15.4462 16.0962 15.4462H16.5808C16.9662 15.4462 17.2425 15.4264 17.4097 15.3867C17.5797 15.3471 17.6648 15.255 17.6648 15.1104C17.6648 14.8809 17.5471 14.4898 17.3119 13.9372L17.89 13.189C17.9297 13.138 17.9552 13.1054 17.9666 13.0913C17.9807 13.0742 17.9963 13.0643 18.0133 13.0615C18.0332 13.0587 18.0487 13.0672 18.0601 13.087C18.0743 13.1068 18.0955 13.1408 18.1238 13.189C18.3732 13.6198 18.4979 14.1214 18.4979 14.6938ZM18.0431 11.3229L18.668 11.9435L18.0431 12.5684L17.4224 11.9435L18.0431 11.3229ZM16.7083 11.3229L17.3289 11.9435L16.7083 12.5684L16.0834 11.9435L16.7083 11.3229Z" fill="white"/>
</svg>
