<svg width="24" height="24" viewBox="0 0 24 24" fill="none" xmlns="http://www.w3.org/2000/svg">
<g clip-path="url(#clip0_2004_157)">
<path fill-rule="evenodd" clip-rule="evenodd" d="M12 23.9997C5.4 23.9997 0 18.5997 0 11.9397C0.06 5.33967 5.4 -0.0603288 12.06 -0.00032876C18.66 0.0596712 24 5.39967 24 12.1197C23.94 18.6597 18.6 23.9997 12 23.9997Z" fill="#FF007A"/>
<path fill-rule="evenodd" clip-rule="evenodd" d="M4.31604 3.39917C6.47901 6.0263 9.81166 10.1109 9.97875 10.3337C10.118 10.5193 10.0623 10.6957 9.83022 10.8257C9.70026 10.9 9.43105 10.9742 9.30108 10.9742C9.15255 10.9742 8.97618 10.9 8.85549 10.7793C8.77195 10.6957 8.4099 10.1666 7.59299 8.89479C6.97102 7.92006 6.44188 7.11243 6.4326 7.10315C6.42848 7.10109 6.42482 7.09926 6.42311 7.10039C6.40937 7.10943 6.52097 7.30884 7.52801 9.10831C8.24281 10.3801 8.47489 10.835 8.47489 10.8907C8.47489 11.0113 8.43775 11.0763 8.28922 11.2434C8.03858 11.5219 7.92718 11.8375 7.84363 12.4967C7.7508 13.23 7.50016 13.7499 6.78535 14.6318C6.36761 15.1516 6.30263 15.2445 6.20052 15.458C6.07055 15.7179 6.03342 15.8664 6.01485 16.2006C5.99629 16.5534 6.03342 16.7762 6.13553 17.1104C6.22837 17.4074 6.33048 17.6024 6.58113 17.983C6.79464 18.3172 6.9246 18.5678 6.9246 18.6607C6.9246 18.7349 6.94317 18.7349 7.27736 18.6607C8.07571 18.475 8.73481 18.1594 9.09686 17.7695C9.31965 17.5281 9.37535 17.3981 9.37535 17.064C9.37535 16.8504 9.36607 16.804 9.31037 16.6741C9.21754 16.4698 9.04116 16.3027 8.66055 16.0428C8.15926 15.6993 7.94575 15.4208 7.89005 15.0495C7.84363 14.7339 7.89933 14.5204 8.17783 13.9355C8.4656 13.3321 8.53987 13.0815 8.58628 12.4688C8.61413 12.0789 8.66055 11.9211 8.77195 11.8004C8.89263 11.6705 8.99474 11.624 9.28252 11.5869C9.75596 11.5219 10.0623 11.4012 10.3037 11.1692C10.5172 10.9742 10.61 10.7793 10.6193 10.4915L10.6286 10.278L10.5079 10.148C10.0716 9.64673 4.02826 3 4.00041 3C3.99474 3 4.04796 3.06581 4.13044 3.16782L4.13044 3.16783C4.18299 3.23281 4.2474 3.31248 4.31604 3.39917ZM7.16596 16.5998C7.26808 16.4234 7.21238 16.2006 7.04528 16.0892C6.88747 15.9871 6.64611 16.0335 6.64611 16.1728C6.64611 16.2099 6.66467 16.247 6.72037 16.2656C6.80392 16.312 6.8132 16.3584 6.74822 16.4606C6.68324 16.5627 6.68324 16.6555 6.76679 16.7205C6.89675 16.8226 7.07313 16.7669 7.16596 16.5998ZM10.1273 7.09387C9.93232 7.06602 9.92304 7.05673 10.0159 7.04745C10.1922 7.0196 10.6007 7.05673 10.8885 7.12172C11.5569 7.27953 12.1603 7.68799 12.8008 8.40279L12.9679 8.59773L13.2093 8.5606C14.2397 8.39351 15.298 8.52347 16.1799 8.93193C16.4212 9.04333 16.8018 9.26612 16.8483 9.32182C16.8668 9.34039 16.8947 9.46107 16.9132 9.58175C16.9782 10.0181 16.9504 10.343 16.8111 10.5936C16.7369 10.7329 16.7369 10.77 16.7833 10.8907C16.8204 10.9835 16.9318 11.0485 17.0339 11.0485C17.2567 11.0485 17.4888 10.6957 17.6002 10.2037L17.6466 10.0088L17.7302 10.1016C18.2036 10.6307 18.5749 11.3641 18.6306 11.884L18.6492 12.0232L18.5656 11.9025C18.4264 11.689 18.2964 11.5498 18.12 11.4291C17.8044 11.2156 17.4702 11.1506 16.5883 11.1042C15.79 11.0578 15.3351 10.9928 14.8895 10.8443C14.1283 10.5936 13.7384 10.2687 12.8379 9.07118C12.4388 8.54204 12.1881 8.25426 11.9375 8.0129C11.3898 7.48376 10.8421 7.20526 10.1273 7.09387ZM17.0432 8.27283C17.0618 7.92007 17.1082 7.68799 17.2103 7.47448C17.2474 7.39093 17.2846 7.31667 17.2938 7.31667C17.3031 7.31667 17.2846 7.38165 17.2567 7.45591C17.1824 7.66014 17.1732 7.94792 17.2196 8.27283C17.2846 8.69057 17.3124 8.74627 17.758 9.20115C17.9622 9.41466 18.2036 9.68387 18.2964 9.79527L18.4542 9.9995L18.2964 9.85096C18.1015 9.6653 17.6559 9.31254 17.5538 9.26613C17.4888 9.22899 17.4795 9.22899 17.4331 9.27541C17.396 9.31254 17.3867 9.36824 17.3867 9.63745C17.3774 10.0552 17.3217 10.3151 17.1824 10.5843C17.1082 10.7236 17.0989 10.6957 17.1639 10.5379C17.2103 10.4172 17.2196 10.3615 17.2196 9.96236C17.2196 9.15473 17.1267 8.95978 16.5605 8.63487C16.4212 8.55133 16.1799 8.43064 16.0406 8.36566C15.8921 8.30068 15.7807 8.24498 15.79 8.24498C15.8085 8.22642 16.3562 8.38423 16.5698 8.47706C16.8947 8.60702 16.9504 8.61631 16.9875 8.60702C17.0153 8.57917 17.0339 8.50491 17.0432 8.27283ZM9.92313 7.66014C9.86743 8.28211 10.1181 9.11759 10.508 9.65601C10.8143 10.0738 11.2878 10.3987 11.6405 10.4358C11.8726 10.4544 11.9376 10.3801 11.8355 10.2316C11.6869 10.0273 11.5106 9.70243 11.4641 9.56318C11.4363 9.47963 11.3713 9.2197 11.3249 8.99691C11.1671 8.23569 11 7.92935 10.6287 7.70655C10.4894 7.623 10.2016 7.5116 10.0345 7.48376L9.9417 7.46519L9.92313 7.66014ZM16.5699 13.6942C14.7318 12.9515 14.082 12.311 14.082 11.2249C14.082 11.067 14.0913 10.9371 14.0913 10.9371C14.0974 10.9371 14.1284 10.9618 14.1731 10.9976L14.1731 10.9976C14.1954 11.0155 14.2212 11.0361 14.2491 11.0578C14.6204 11.3548 15.0381 11.4848 16.1985 11.6519C16.8762 11.754 17.2661 11.8283 17.6189 11.9489C18.7421 12.3203 19.4383 13.0815 19.6054 14.1119C19.6519 14.409 19.624 14.9752 19.5497 15.2723C19.4848 15.5044 19.2991 15.9314 19.2527 15.9407C19.2434 15.9407 19.2248 15.8943 19.2248 15.82C19.2063 15.4301 19.0113 15.0588 18.6864 14.771C18.2965 14.4368 17.7952 14.1862 16.5699 13.6942ZM15.1774 13.6106C15.2052 13.6849 15.2517 13.8613 15.2702 14.0005C15.4188 14.8731 14.9639 15.5879 14.0449 15.8757C13.952 15.9128 13.5807 15.9871 13.2187 16.0428C12.4853 16.1728 12.1511 16.2563 11.8262 16.4141C11.5941 16.5255 11.3063 16.6926 11.3249 16.7112C11.3342 16.7205 11.3899 16.7019 11.4456 16.6833C11.8633 16.5348 12.3275 16.4605 13.0237 16.4234C13.2567 16.4079 13.5156 16.3859 13.6592 16.3736L13.6596 16.3736L13.6596 16.3736L13.7292 16.3677C14.3512 16.2842 14.7875 16.0985 15.1217 15.755C15.3074 15.5601 15.4188 15.3837 15.5116 15.1331C15.5673 14.9752 15.5766 14.9103 15.5766 14.6318C15.5766 14.344 15.5766 14.2883 15.5116 14.1119C15.428 13.8798 15.3352 13.7127 15.2145 13.5735L15.131 13.4714L15.1774 13.6106ZM16.1149 15.4951C15.8735 14.966 15.8178 14.4647 15.9478 13.9912C15.9663 13.9448 15.9849 13.8984 16.0035 13.8984C16.022 13.8984 16.0777 13.9262 16.1334 13.9634C16.2448 14.0376 16.4769 14.1676 17.071 14.4925C17.8229 14.901 18.25 15.2166 18.547 15.5786C18.807 15.8943 18.9648 16.2563 19.039 16.7019C19.0855 16.9525 19.0576 17.556 18.9926 17.8066C18.7884 18.5957 18.3242 19.2269 17.6466 19.589C17.5445 19.6447 17.4609 19.6818 17.4516 19.6818C17.4423 19.6818 17.4795 19.589 17.5352 19.4776C17.758 19.0041 17.7858 18.5492 17.6187 18.0387C17.5166 17.7231 17.3031 17.3424 16.8761 16.7019C16.3655 15.9593 16.2448 15.7643 16.1149 15.4951ZM11.5105 17.2218C10.7308 17.3517 9.88599 17.7602 9.19904 18.3357L9.00409 18.5214L9.18047 18.5493C10.1088 18.6885 10.3594 18.8185 11.0092 19.4869C11.3806 19.8675 11.5105 19.951 11.8169 20.0346C12.2718 20.1552 12.7173 19.9417 12.8752 19.5333C12.9401 19.3476 12.9309 19.0505 12.8566 18.902C12.6709 18.54 12.1232 18.4286 11.8633 18.6885C11.6498 18.902 11.7148 19.2362 11.984 19.2919C12.0397 19.3012 12.0397 19.3012 11.9654 19.2641C11.8447 19.2084 11.789 19.1341 11.789 19.0134C11.7798 18.7256 12.1047 18.5771 12.4017 18.7071C12.6245 18.8092 12.7081 18.9391 12.7081 19.1619C12.7081 19.5054 12.411 19.7746 12.0675 19.7282C11.8819 19.7004 11.6591 19.589 11.5384 19.4497C11.2413 19.1155 11.3527 18.5678 11.7798 18.3636C12.1047 18.2058 12.5317 18.2522 12.8659 18.4657C13.2465 18.7163 13.4136 18.9391 13.7385 19.6911C13.8499 19.9417 13.9799 20.2109 14.0448 20.3038C14.3512 20.7679 14.7318 21 15.1774 21C15.428 21 15.6137 20.9629 15.8458 20.8422C16.0129 20.7586 16.2635 20.5915 16.2449 20.573C16.2449 20.5657 16.1989 20.5814 16.1385 20.602L16.1384 20.602L16.1384 20.602L16.0871 20.6194C15.5951 20.8051 15.0938 20.7958 14.8061 20.5823C14.6204 20.443 14.4719 20.1831 14.3976 19.8489L14.3885 19.7959L14.3885 19.7958C14.3708 19.6938 14.3348 19.4852 14.3048 19.2826C14.2026 18.6421 14.1005 18.3543 13.8777 18.0201C13.6457 17.6766 13.2001 17.3981 12.7081 17.2682C12.4017 17.1846 11.8447 17.1661 11.5105 17.2218ZM10.4243 12.2646C10.4893 12.0232 10.7028 11.7818 10.9256 11.7169C11.0741 11.6704 11.3619 11.6983 11.5012 11.7726C11.7704 11.9118 11.9653 12.2182 11.9189 12.4409C11.8725 12.7102 11.4362 12.933 10.9256 12.933C10.6657 12.933 10.5729 12.8958 10.4707 12.7659C10.4058 12.6823 10.3872 12.4131 10.4243 12.2646ZM11.4269 11.8654C11.5662 11.9489 11.594 12.0696 11.5197 12.181C11.464 12.2553 11.2969 12.3296 11.1763 12.3296C10.9906 12.3296 10.7956 12.1996 10.7956 12.0789C10.7956 11.8375 11.1763 11.7076 11.4269 11.8654Z" fill="white"/>
</g>
<defs>
<clipPath id="clip0_2004_157">
<rect width="24" height="24" fill="white"/>
</clipPath>
</defs>
</svg>
