<svg width="24" height="24" viewBox="0 0 24 24" fill="none" xmlns="http://www.w3.org/2000/svg">
<g clip-path="url(#clip0_3308_906)">
<path d="M14.5725 24C12.8599 24 11.6099 23.5875 10.8225 22.7625C10.093 22.0641 9.66968 21.1054 9.64505 20.0958C9.63619 19.7891 9.70726 19.4854 9.8513 19.2144C9.98566 18.9804 10.1797 18.7861 10.4137 18.6516C10.6857 18.5159 10.9854 18.4453 11.2893 18.4453C11.5933 18.4453 11.893 18.5159 12.165 18.6516C12.3985 18.7856 12.5917 18.98 12.7242 19.2144C12.8724 19.4841 12.9462 19.7883 12.9379 20.0958C12.9532 20.4631 12.8478 20.8253 12.6379 21.1271C12.4629 21.3734 12.2128 21.5564 11.9251 21.6486C12.2065 22.0069 12.6046 22.255 13.0501 22.35C13.5485 22.4947 14.0648 22.5692 14.5838 22.5711C15.271 22.5771 15.944 22.3759 16.5151 21.9937C17.1075 21.5751 17.5494 20.9768 17.7751 20.2874C18.0612 19.467 18.2008 18.6026 18.1876 17.7338C18.2107 16.828 18.0578 15.9263 17.7376 15.0787C17.4967 14.4008 17.0394 13.821 16.4363 13.4287C15.8757 13.074 15.225 12.8878 14.5617 12.8925C13.9836 12.9415 13.4262 13.1307 12.9379 13.4438L11.7338 14.0474V13.4438L17.145 6.18455H9.64505V13.7175C9.62386 14.2611 9.76766 14.7984 10.0576 15.2587C10.1978 15.4593 10.3875 15.6203 10.6082 15.7261C10.829 15.8319 11.0733 15.8788 11.3175 15.8624C11.7688 15.8533 12.2052 15.6995 12.5624 15.4237C12.9674 15.1269 13.3198 14.7644 13.605 14.3512C13.6306 14.2787 13.678 14.2159 13.7406 14.1713C13.7908 14.1279 13.855 14.1039 13.9214 14.1038C14.0517 14.1157 14.1749 14.1681 14.2739 14.2537C14.3992 14.3938 14.4675 14.5757 14.4651 14.7637C14.4506 14.89 14.4281 15.0152 14.3976 15.1387C14.1312 15.7835 13.6846 16.338 13.1113 16.7357C12.5788 17.096 11.9499 17.287 11.307 17.2838C9.68317 17.2838 8.55825 16.9638 7.93221 16.3238C7.61042 15.97 7.36243 15.5556 7.20274 15.1049C7.04305 14.6542 6.97487 14.1761 7.00219 13.6987V6.18455H3.1875V4.78493H7.01997V1.59367L6.14253 0.71563V0H8.68867L9.64505 0.495065V4.78493L19.5524 4.7548L20.5388 5.74478L14.4637 11.8493C14.8307 11.7017 15.2173 11.6082 15.6112 11.5718C16.3908 11.606 17.1514 11.8231 17.8316 12.2056C18.6192 12.58 19.283 13.1723 19.7442 13.9125C20.1575 14.539 20.45 15.2372 20.6067 15.9712C20.7356 16.5502 20.8047 17.1408 20.813 17.7339C20.817 18.8658 20.5604 19.9833 20.063 21.0001C19.5913 21.9846 18.7974 22.7785 17.8129 23.2501C16.8051 23.7468 15.696 24.0034 14.5725 24Z" fill="#2C7DF7"/>
</g>
<defs>
<clipPath id="clip0_3308_906">
<rect width="24" height="24" fill="white"/>
</clipPath>
</defs>
</svg>
