<svg width="24" height="24" viewBox="0 0 24 24" fill="none" xmlns="http://www.w3.org/2000/svg">
<path d="M0 12C0 5.37258 5.37258 0 12 0C18.6274 0 24 5.37258 24 12C24 18.6274 18.6274 24 12 24C5.37258 24 0 18.6274 0 12Z" fill="url(#paint0_linear_161_380)"/>
<path d="M17.4483 16.4312L13.2458 6.2808C13.0088 5.756 12.6564 5.5 12.192 5.5H11.8204C11.356 5.5 11.0036 5.756 10.7666 6.2808L8.93759 10.7032H7.55383C7.14063 10.7064 6.8043 11.0392 6.8011 11.4552V11.4648C6.8043 11.8776 7.14063 12.2136 7.55383 12.2168H8.29696L6.55125 16.4312C6.51922 16.524 6.5 16.62 6.5 16.7192C6.5 16.956 6.57367 17.1416 6.705 17.2856C6.83633 17.4296 7.02532 17.5 7.26235 17.5C7.4193 17.4968 7.56985 17.4488 7.69477 17.356C7.8293 17.2632 7.9222 17.1288 7.99587 16.9752L9.91776 12.2136H11.2503C11.6635 12.2104 11.9998 11.8776 12.003 11.4616V11.4424C11.9998 11.0296 11.6635 10.6936 11.2503 10.6904H10.5392L12.0062 7.0392L16.0037 16.972C16.0774 17.1256 16.1703 17.26 16.3048 17.3528C16.4297 17.4456 16.5835 17.4936 16.7373 17.4968C16.9743 17.4968 17.1601 17.4264 17.2946 17.2824C17.4291 17.1384 17.4996 16.9528 17.4996 16.716C17.5028 16.62 17.4868 16.5208 17.4483 16.4312Z" fill="white"/>
<defs>
<linearGradient id="paint0_linear_161_380" x1="20.947" y1="4.47174" x2="3.09103" y2="19.4957" gradientUnits="userSpaceOnUse">
<stop stop-color="#B6509E"/>
<stop offset="1" stop-color="#2EBAC6"/>
</linearGradient>
</defs>
</svg>
