<svg width="24" height="24" viewBox="0 0 24 24" fill="none" xmlns="http://www.w3.org/2000/svg">
<path d="M24 12C24 5.37258 18.6274 0 12 0C5.37258 0 0 5.37258 0 12C0 18.6274 5.37258 24 12 24C18.6274 24 24 18.6274 24 12Z" fill="url(#paint0_radial_477_206)"/>
<mask id="mask0_477_206" style="mask-type:alpha" maskUnits="userSpaceOnUse" x="0" y="0" width="24" height="24">
<path d="M0 12C0 5.37258 5.37258 0 12 0C18.6274 0 24 5.37258 24 12C24 18.6274 18.6274 24 12 24C5.37258 24 0 18.6274 0 12Z" fill="#D9D9D9"/>
</mask>
<g mask="url(#mask0_477_206)">
<path opacity="0.8" d="M9.94026 25.3828C9.06348 25.3828 8.23187 25.3274 7.53406 25.2731L7.34168 25.2582L7.14955 25.2314C7.06555 25.2196 6.95136 25.2073 6.84116 25.1953C6.16981 25.1223 4.92129 24.9863 3.5431 24.3391L3.32903 24.2382L3.12942 24.1264C0.480643 22.6416 -0.510711 20.4072 -1.04452 19.2059C-1.07845 19.1296 -1.11974 19.0367 -1.15845 18.9512C-1.428 18.3997 -1.59832 17.9025 -1.74284 17.4474L-1.77497 17.3458L-1.80168 17.2471C-2.18619 15.8806 -2.28336 14.7006 -2.10723 13.5338C-1.93071 12.3621 -1.49665 11.2962 -0.74271 10.1805L-0.351743 9.54202C-0.272388 9.41312 -0.216387 9.27118 -0.186194 9.12279C0.111871 7.6455 0.788257 6.59905 1.12064 6.09931C1.21213 5.49428 1.36297 4.89983 1.57097 4.32447L1.60194 4.23725L1.6351 4.15221C1.64051 4.13725 1.64748 4.11609 1.66026 4.07751C1.80955 3.62783 2.15961 2.57544 3.05587 1.47041L3.39251 1.06267L3.73548 0.752859C4.61652 -0.0477864 5.66619 -0.640302 6.80684 -0.980947C7.44374 -1.17088 8.10026 -1.28701 8.76361 -1.32701L8.82774 -1.33179L8.92439 -1.3363C9.0391 -1.34172 9.15342 -1.3443 9.2649 -1.3443C9.67884 -1.34508 10.0921 -1.31024 10.5 -1.2403C10.755 -1.19733 11.0168 -1.22727 11.2554 -1.32662C11.9626 -1.62172 12.7061 -1.82133 13.4659 -1.92017C13.5294 -1.9292 13.5848 -1.93617 13.6284 -1.94185C13.7483 -1.95682 13.9387 -1.97927 14.1689 -2.0012C14.5702 -2.03953 15.1855 -2.08521 15.8526 -2.08521C17.1554 -2.08521 18.2768 -1.91643 19.2806 -1.56933L19.3661 -1.53966L19.4495 -1.5083C21.6649 -0.67114 22.7926 0.498409 23.6037 1.53015L23.6422 1.57931L23.7538 1.67854C24.4865 2.25183 25.1095 2.9526 25.593 3.74744L25.7443 3.99622L25.8719 4.25712C26.9555 6.46899 26.6111 8.51131 26.4813 9.27867L26.4743 9.3197C26.381 9.88576 26.2325 10.4414 26.031 10.9785C25.9568 11.4965 25.8348 12.0064 25.6666 12.5018C25.379 13.3824 24.9546 14.2122 24.409 14.961C24.095 15.4052 23.7403 15.8194 23.3495 16.1982C23.2114 16.3317 23.1218 16.5076 23.0951 16.6978C23.0782 16.8149 23.059 16.9308 23.037 17.0455C22.7194 18.7494 21.9742 19.9352 21.6701 20.4074L20.7505 21.7282C19.643 23.108 18.3289 24.018 16.7388 24.5071L16.3535 24.6278L15.9374 24.7002C15.4614 24.7842 14.979 24.826 14.4956 24.825C14.4289 24.825 14.3618 24.825 14.2874 24.8231H14.2659L14.1839 24.8282L14.0959 24.8314H14.0934C13.9092 24.8376 13.7264 24.8677 13.5499 24.921C12.5228 25.2352 11.361 25.3828 9.94026 25.3828Z" stroke="url(#paint1_linear_477_206)" stroke-width="0.12" stroke-miterlimit="10"/>
<path opacity="0.8" d="M9.94023 24.4747C9.1001 24.4747 8.2943 24.4212 7.61701 24.3677L7.45649 24.3553L7.29597 24.3332C7.19584 24.3192 7.07365 24.3064 6.95558 24.293C6.30358 24.2222 5.21352 24.1036 3.99662 23.5329L3.81791 23.4489L3.65171 23.3555C1.31429 22.0445 0.449519 20.0979 -0.0673838 18.9346C-0.104287 18.8516 -0.149576 18.7497 -0.19177 18.6571C-0.432544 18.1632 -0.590479 17.707 -0.72377 17.2872L-0.750479 17.2026L-0.773706 17.1202C-1.11564 15.9049 -1.20403 14.8679 -1.05151 13.856C-0.898997 12.844 -0.514738 11.9089 0.155456 10.9232L0.656359 10.1053C0.745004 9.96038 0.805778 9.80012 0.835584 9.63302C1.085 8.24347 1.74139 7.25831 2.03972 6.80993L2.07739 6.75315L2.09133 6.7307C2.09752 6.71702 2.10333 6.70399 2.109 6.6898C2.1272 6.6307 2.14513 6.57341 2.16255 6.51883C2.241 5.94876 2.37946 5.38877 2.57584 4.84786L2.60268 4.77509L2.63133 4.70206C2.64036 4.67883 2.64887 4.65367 2.67404 4.57818C2.8161 4.15005 3.11184 3.26128 3.88539 2.3076L4.16603 1.96786L4.45094 1.71018C5.21494 1.01599 6.125 0.502313 7.11404 0.206958C7.67558 0.0402487 8.2543 -0.0614286 8.83894 -0.0961383L8.89249 -0.100399L8.97275 -0.10414C9.07042 -0.108785 9.16784 -0.11085 9.26281 -0.11085C9.68229 -0.111624 10.1006 -0.232397 10.5116 -0.14801C10.8286 -0.0824619 11.1583 -0.117557 11.4544 -0.248395C12.0077 -0.492395 12.7526 -0.589816 13.6054 -0.696009C13.6662 -0.704913 13.7191 -0.711494 13.7602 -0.716655C13.8724 -0.730849 14.0517 -0.75201 14.2686 -0.772526C14.6459 -0.808655 15.2265 -0.852783 15.8508 -0.852783C17.0326 -0.852783 18.0395 -0.703237 18.9291 -0.395624L19.0002 -0.370978L19.0698 -0.344138C21.0335 0.397798 22.004 1.39096 22.7601 2.35393C22.802 2.40748 22.8451 2.46231 22.8611 2.48128L22.8791 2.49728L23.0225 2.62502L23.0418 2.64477C23.6951 3.14515 24.2494 3.76283 24.6766 4.46605L24.8024 4.67341L24.9094 4.8907C25.8415 6.79328 25.5494 8.52425 25.4247 9.26347L25.418 9.30283C25.3295 9.83986 25.1849 10.3662 24.9862 10.8729C24.9236 11.3661 24.8113 11.8516 24.6512 12.3223C24.3969 13.1014 24.0215 13.8359 23.5389 14.4983C23.2122 14.9628 22.8344 15.389 22.4127 15.7693C22.2171 15.945 22.0936 16.1871 22.0663 16.4486C22.0459 16.6413 22.0184 16.8285 21.9836 17.0124C21.7035 18.5164 21.0487 19.5566 20.749 20.0224L20.0041 21.1053C19.0142 22.3773 17.8411 23.2091 16.4201 23.6472L16.0991 23.7477L15.7512 23.808C15.3361 23.8813 14.9152 23.9177 14.4936 23.9169C14.4324 23.9169 14.3698 23.9169 14.3024 23.9152H14.2833H14.2435C14.2435 23.9152 14.2302 23.9152 14.2028 23.9172L14.1293 23.9217L14.0552 23.9244L13.9072 23.9299C13.7116 23.9369 13.5179 23.9706 13.3313 24.0301C12.3853 24.3321 11.292 24.4747 9.94023 24.4747Z" stroke="url(#paint2_linear_477_206)" stroke-width="0.12" stroke-miterlimit="10"/>
<path opacity="0.8" d="M9.94027 23.405C9.13756 23.405 8.35678 23.3529 7.69962 23.3018L7.57149 23.2918L7.44362 23.2742C7.32775 23.2582 7.19743 23.244 7.07136 23.23C6.44826 23.1623 5.50723 23.0598 4.45201 22.5649L4.30878 22.4978L4.17498 22.4231C2.14801 21.2867 1.40362 19.6104 0.910719 18.5011C0.868783 18.4062 0.821169 18.2991 0.77704 18.1998C0.562976 17.7645 0.420009 17.3493 0.298331 16.9647L0.276912 16.8974L0.258202 16.8312C-0.041282 15.7675 -0.120378 14.873 0.00852477 14.017C0.139363 13.149 0.480267 12.34 1.08065 11.4703L1.15214 11.3671L1.22943 11.2678C1.27807 11.2058 1.32491 11.1445 1.37098 11.0845L1.67227 10.532C1.7711 10.3515 1.83782 10.1551 1.86943 9.95171C2.06104 8.7121 2.6582 7.81649 2.93382 7.40345L2.9351 7.40126C2.95097 7.37764 2.97124 7.34771 2.98169 7.33119L3.04052 7.23726C3.06362 7.18694 3.09407 7.1201 3.12078 7.0499C3.14762 6.96616 3.17949 6.86268 3.2142 6.75558C3.27949 6.22758 3.40465 5.70861 3.58723 5.20887L3.60801 5.15055L3.63085 5.09158C3.65007 5.04268 3.66427 5.0001 3.69214 4.91635C3.82401 4.5201 4.06852 3.78461 4.71898 2.98216L4.94401 2.71003L5.17123 2.50487C5.81782 1.91726 6.58814 1.48229 7.42543 1.23236C7.91136 1.0881 8.41239 1.00061 8.91846 0.971711L8.96117 0.968486L9.0262 0.965517C9.10646 0.961775 9.18672 0.959969 9.26698 0.959969C9.7022 0.959324 10.1356 1.01442 10.5567 1.12397C10.9213 1.21623 11.3068 1.17545 11.644 1.00913C12.1838 0.747196 12.9057 0.469259 13.7514 0.365388C13.8094 0.35713 13.8585 0.350676 13.8983 0.345644C14.0035 0.332483 14.171 0.312744 14.3743 0.292099C14.7283 0.258163 15.2725 0.217773 15.8547 0.217773C16.9156 0.217773 17.8079 0.347968 18.5839 0.616097L18.6409 0.635967L18.6965 0.656742C20.5001 1.33855 21.3076 2.23145 21.9228 3.01455C22.0585 3.18707 22.079 3.21391 22.1721 3.29662L22.287 3.39881L22.3316 3.44449C22.6284 3.67442 23.2352 4.14771 23.7663 5.02319L23.8671 5.189L23.9523 5.36268C24.733 6.95597 24.4901 8.39494 24.3734 9.08668L24.367 9.12487C24.2835 9.63197 24.1422 10.128 23.9458 10.6029L23.9405 10.6465C23.8887 11.1009 23.7883 11.5484 23.641 11.9814C23.4203 12.6595 23.0938 13.2984 22.6738 13.8747C22.3225 14.3783 21.9001 14.8284 21.42 15.2112C21.3058 15.3018 21.2123 15.4157 21.1457 15.5454C21.0791 15.6752 21.0412 15.8176 21.0342 15.9633C21.0212 16.2491 20.9883 16.5339 20.9357 16.8152C20.6933 18.1193 20.124 19.0235 19.8334 19.4748L19.256 20.3281C18.3856 21.49 17.3538 22.2422 16.107 22.6245L15.8505 22.7047L15.5729 22.753C15.2182 22.8157 14.8585 22.8468 14.4982 22.846C14.4422 22.846 14.3853 22.846 14.3238 22.8445H14.3096H14.248C14.2376 22.8445 14.2057 22.8445 14.1409 22.8485L14.0821 22.8522L14.0252 22.8544L13.7276 22.8654C13.5192 22.8725 13.3129 22.9098 13.1151 22.9758C12.2485 23.2677 11.2261 23.405 9.94027 23.405Z" stroke="url(#paint3_linear_477_206)" stroke-width="0.12" stroke-miterlimit="10"/>
<path opacity="0.8" d="M9.94009 22.3345C9.17299 22.3345 8.4188 22.2839 7.78254 22.2345L7.68641 22.227L7.59041 22.2138C7.45906 22.1956 7.32073 22.1804 7.18667 22.1659C6.60099 22.1019 5.80009 22.015 4.90615 21.5957L4.79919 21.5452L4.69932 21.4893C2.98267 20.5261 2.35119 19.105 1.8899 18.0666C1.84203 17.9596 1.79222 17.847 1.74306 17.7391C1.54693 17.3448 1.42203 16.9661 1.31815 16.6421L1.30216 16.5915L1.28822 16.5421C0.786284 14.7582 0.974929 13.5068 1.96112 12.0791L2.01467 12.0014L2.07273 11.9271C2.13828 11.8434 2.19957 11.7628 2.25996 11.6863C2.35093 11.567 2.44306 11.4454 2.54331 11.3205C2.60564 11.2427 2.65583 11.1559 2.69235 11.0631L2.80551 10.7742C2.85351 10.6512 2.88357 10.5222 2.89493 10.3907C2.99312 9.24633 3.54964 8.41214 3.82525 7.99872L3.8268 7.99652C3.84693 7.96607 3.87738 7.92065 3.88757 7.90427L3.95209 7.8013L3.97183 7.77446C4.00616 7.70517 4.07325 7.55885 4.13235 7.40556C4.16422 7.30065 4.21454 7.13962 4.2637 6.99317C4.2637 6.98762 4.2637 6.98143 4.2659 6.97498C4.31867 6.49549 4.42912 6.02414 4.59506 5.5711L4.6108 5.52723L4.62796 5.4831C4.6579 5.40684 4.67906 5.3431 4.70822 5.2551C4.8259 4.90143 5.0228 4.3093 5.55054 3.65859L5.71932 3.4542L5.88873 3.30117C7.13493 2.17033 8.52951 2.07278 8.99557 2.04143L9.0277 2.03898L9.07699 2.03665C9.14035 2.03368 9.20383 2.0324 9.2659 2.0324C9.81919 2.03433 10.3667 2.1462 10.8763 2.36168C10.9667 2.39923 11.0641 2.41627 11.1618 2.41162C11.2594 2.40698 11.3548 2.38078 11.4411 2.33497H11.4438C11.9176 2.06013 12.7856 1.56194 13.8923 1.42865C13.9458 1.42065 13.9951 1.41459 14.0312 1.40994C14.1286 1.39769 14.284 1.37949 14.4751 1.36104C14.8058 1.32943 15.3136 1.29175 15.8535 1.29175C16.7935 1.29175 17.5716 1.40297 18.2325 1.63149L18.2753 1.6462L18.317 1.66207C19.8627 2.24607 20.5292 2.97897 21.0793 3.67949C21.2273 3.86672 21.2934 3.95368 21.4591 4.09975L21.5451 4.17652L21.6142 4.24749L21.6677 4.28981C21.9296 4.49252 22.4169 4.87007 22.8493 5.5813L22.925 5.70568L22.9889 5.83601C23.6176 7.12027 23.421 8.28504 23.3153 8.91111L23.3093 8.94827C23.2347 9.40349 23.1051 9.84788 22.9233 10.2716L22.9081 10.308C22.9065 10.3159 22.9043 10.3274 22.9011 10.3441C22.8929 10.3872 22.8881 10.4216 22.8824 10.4652L22.876 10.5143C22.8331 10.8982 22.7487 11.2763 22.6242 11.6418C22.437 12.2186 22.1596 12.7621 21.8025 13.252C21.4494 13.7534 21.0534 14.1618 20.609 14.485C20.4139 14.6275 20.2545 14.8134 20.1436 15.028C20.0326 15.2426 19.973 15.4801 19.9695 15.7217C19.9658 16.023 19.9362 16.3234 19.8814 16.6196C19.6765 17.7244 19.205 18.4725 18.9116 18.9284L18.492 19.5574C17.7406 20.6071 16.8543 21.2774 15.7874 21.604L15.7311 21.6217C15.6405 21.6502 15.5481 21.6725 15.4547 21.6887L15.3869 21.7004C15.0926 21.7525 14.7943 21.7785 14.4954 21.7777C14.4449 21.7777 14.3935 21.7777 14.3378 21.7764H14.3287C14.3033 21.7764 14.2752 21.7764 14.2453 21.7764C14.2243 21.7764 14.1693 21.7764 14.0696 21.7826L14.0255 21.7852L13.9824 21.7868C13.8393 21.7921 13.6614 21.7983 13.5027 21.8053C13.2853 21.8143 13.0704 21.8564 12.8656 21.9302C12.0978 22.2045 11.158 22.3345 9.94009 22.3345Z" stroke="url(#paint4_linear_477_206)" stroke-width="0.12" stroke-miterlimit="10"/>
<path opacity="0.8" d="M9.94003 21.2643C9.20932 21.2643 8.48132 21.2154 7.86545 21.1675L7.80119 21.1626L7.73719 21.1536C7.58984 21.1332 7.44287 21.1172 7.30132 21.1019C6.763 21.0434 6.09306 20.9703 5.36042 20.6267L5.28881 20.593L5.22235 20.5559C3.81616 19.7674 3.29061 18.5836 2.8679 17.6324C2.8159 17.5152 2.7608 17.3943 2.70725 17.2765C2.54171 16.9461 2.42958 16.6076 2.33758 16.3179L2.32687 16.2844L2.31745 16.2515C1.90326 14.7799 2.04003 13.8458 2.8408 12.6865L2.87642 12.6348L2.91525 12.5854C2.98506 12.496 3.04893 12.4125 3.10996 12.332C3.319 12.0579 3.5199 11.7942 3.82042 11.4734C3.88622 11.403 3.92571 11.3119 3.9319 11.2158L3.95474 10.8694L3.94584 10.756L3.94984 10.6383C3.98119 9.68878 4.45822 8.97433 4.71345 8.59059C4.743 8.5462 4.77371 8.50053 4.7919 8.47136L4.835 8.40285L4.87487 8.3493C4.92248 8.2715 5.04764 8.00608 5.14235 7.75137C5.175 7.64427 5.23823 7.44014 5.29384 7.27821C5.31023 7.22659 5.31177 7.21407 5.32519 7.10324C5.36867 6.70259 5.46093 6.30866 5.5999 5.93033L5.61035 5.90078L5.62184 5.87111C5.66145 5.76995 5.68906 5.68736 5.72093 5.59149C5.82171 5.28814 5.97371 4.83085 6.37887 4.33137L6.49177 4.19485L6.60351 4.09369C7.47668 3.30091 8.42777 3.15085 9.06971 3.10775L9.09139 3.10582H9.12455C9.17113 3.10375 9.21745 3.10272 9.26287 3.10272C9.81113 3.10272 10.4669 3.36569 10.8113 3.52465C10.8936 3.56233 10.9826 3.5835 11.0732 3.58685C11.1638 3.59008 11.2541 3.57536 11.3389 3.54362C11.5532 3.46594 11.762 3.37408 11.9639 3.26853C12.402 3.01433 13.1287 2.59459 14.0311 2.48943C14.0809 2.48195 14.1256 2.47627 14.1625 2.47149C14.2532 2.46027 14.3964 2.44478 14.5737 2.4262C14.8814 2.39678 15.3527 2.36182 15.8506 2.36182C16.6693 2.36182 17.3332 2.45382 17.8798 2.64272L17.9082 2.65265L17.9349 2.66311C19.2258 3.15085 19.7396 3.71137 20.2338 4.3404C20.3944 4.54324 20.5078 4.68827 20.7435 4.89911L20.8008 4.9502L20.8542 5.00375C20.9024 5.05137 20.9541 5.09511 21.0092 5.13459C21.2307 5.30608 21.6021 5.59343 21.9315 6.13575L21.9818 6.21872L22.0245 6.30569C22.502 7.27988 22.3485 8.18853 22.2568 8.73137L22.2507 8.76827C22.1897 9.14311 22.0829 9.50891 21.9325 9.85756V9.86027C21.891 9.95046 21.8622 10.0459 21.8473 10.1441C21.8344 10.2127 21.8264 10.2678 21.8186 10.3288L21.8122 10.3785C21.7778 10.6916 21.7093 11.0001 21.608 11.2983C21.4553 11.7743 21.2267 12.2225 20.9314 12.6256C20.4953 13.2476 19.9911 13.6853 19.3838 13.9634C19.2362 14.0307 19.1101 14.1374 19.0195 14.272C18.9288 14.4065 18.8771 14.5634 18.87 14.7253C18.8671 14.7918 18.866 14.8463 18.8679 14.8768C18.8978 15.3448 18.9318 15.8751 18.8275 16.4214C18.6603 17.325 18.2776 17.9324 17.99 18.3783C17.99 18.3783 16.6704 20.215 15.4696 20.5816L15.3403 20.6219L15.2015 20.6462C14.9678 20.6878 14.7309 20.7083 14.4935 20.7075C14.4485 20.7075 14.4025 20.7075 14.3531 20.7062H14.3487C14.3169 20.7062 14.2824 20.7062 14.2433 20.7062C14.1962 20.7062 14.1194 20.7062 14 20.7145L13.9709 20.7164H13.9421C13.4826 20.7329 13.0484 20.7485 12.9276 20.772C12.8631 20.7821 12.8002 20.8005 12.7404 20.8271C12.0608 21.1249 11.1696 21.2643 9.94003 21.2643Z" stroke="url(#paint5_linear_477_206)" stroke-width="0.12" stroke-miterlimit="10"/>
<path opacity="0.8" d="M9.94015 20.1945C9.24609 20.1945 8.54377 20.1471 7.94815 20.1008L7.91628 20.0983L7.88441 20.0938C7.72145 20.0714 7.56686 20.0545 7.41706 20.0382C6.91022 19.983 6.38609 19.9261 5.81486 19.6582L5.77899 19.641L5.74583 19.6226C4.6488 19.0072 4.24132 18.0881 3.84609 17.1982C3.78996 17.072 3.7319 16.9414 3.6719 16.8116C3.53809 16.5472 3.44338 16.2636 3.35835 15.995L3.35293 15.9785L3.34815 15.9616C3.01886 14.7902 3.1026 14.1921 3.72273 13.295L3.74067 13.2683L3.7599 13.2434C3.83267 13.1506 3.89886 13.0639 3.96247 12.9801C4.26054 12.5892 4.51822 12.2512 5.09564 11.7183L5.09719 11.7167C5.13964 11.6763 5.16931 11.6244 5.18286 11.5674C5.19641 11.5105 5.19306 11.4507 5.17344 11.3956L5.06944 11.0989C5.04854 11.0053 5.03383 10.9105 5.02557 10.815V10.8118L5.01912 10.7315L5.02119 10.6727C5.04235 10.0281 5.38144 9.52002 5.60557 9.18363C5.64067 9.13008 5.67409 9.08118 5.70002 9.03937L5.72145 9.00517L5.74557 8.97279C5.86467 8.81227 6.05809 8.36788 6.15977 8.09253C6.18648 8.00775 6.25499 7.78001 6.31203 7.61498C6.35254 7.49072 6.37886 7.36247 6.39035 7.23227C6.42402 6.91021 6.49796 6.59343 6.61035 6.28969L6.61564 6.27473L6.62157 6.26001C6.67099 6.13292 6.70583 6.02853 6.73951 5.92737C6.82918 5.65795 6.9306 5.3524 7.2128 5.00427L7.26957 4.93576L7.32493 4.88582C7.94519 4.32234 8.62506 4.20879 9.14944 4.17408H9.16041H9.17757C9.20699 4.17408 9.23641 4.17214 9.26557 4.17214C9.77589 4.17214 10.1682 4.38143 10.4276 4.52002L10.4882 4.55214L10.4972 4.55692C10.5684 4.5955 10.631 4.62918 10.6891 4.65782C10.8503 4.73872 11.0356 4.75769 11.21 4.71137C11.5653 4.61576 12.1198 4.40556 12.4927 4.20053L12.5004 4.19601C12.8927 3.96853 13.4835 3.62608 14.1759 3.55008C14.2195 3.54311 14.2613 3.53808 14.3007 3.53292C14.3809 3.52286 14.5146 3.50621 14.6781 3.4915C14.9629 3.46479 15.3976 3.43188 15.8533 3.43188C16.5511 3.43188 17.1004 3.50466 17.5328 3.65395L17.547 3.65898L17.5614 3.6644C18.5972 4.05576 18.975 4.46543 19.3958 5.00221C19.5671 5.22027 19.7289 5.42621 20.0359 5.6995L20.0644 5.72621L20.0913 5.75292C20.1742 5.83666 20.2636 5.91369 20.3587 5.98337C20.5429 6.12595 20.7951 6.32131 21.0218 6.69421L21.047 6.73576L21.0684 6.77937C21.394 7.44427 21.2856 8.08685 21.2065 8.55588L21.2003 8.59292C21.1529 8.88879 21.068 9.17743 20.9479 9.45201C20.8778 9.61008 20.828 9.7764 20.7998 9.94698C20.7811 10.0459 20.7701 10.1234 20.7609 10.195L20.7545 10.2458C20.7288 10.4884 20.6763 10.7272 20.598 10.9581C20.4793 11.3328 20.2998 11.6853 20.0666 12.0016C19.6733 12.5662 19.2372 12.9143 18.6578 13.0986C18.3803 13.1865 18.1414 13.3674 17.9817 13.6107L17.9358 13.6814L17.8849 13.7395C17.7377 13.907 17.7792 14.556 17.8047 14.9435C17.8314 15.3687 17.86 15.8083 17.7805 16.2222C17.65 16.9298 17.3469 17.4075 17.0755 17.8275C17.0755 17.8275 16.0679 19.2812 15.1587 19.5573L15.0925 19.5782L15.023 19.5902C14.8498 19.6213 14.6742 19.6365 14.4983 19.6358C14.4587 19.6358 14.4181 19.6358 14.375 19.6358C14.3368 19.6358 14.2947 19.6358 14.2482 19.6358C14.1863 19.6358 14.0876 19.6358 13.9373 19.6462H13.9229H13.9084C13.2986 19.6684 12.9307 19.6814 12.7274 19.721C12.5905 19.7453 12.4569 19.7852 12.3292 19.8401C11.7847 20.0816 11.0243 20.1945 9.94015 20.1945Z" stroke="url(#paint6_linear_477_206)" stroke-width="0.12" stroke-miterlimit="10"/>
</g>
<path d="M20.2007 8.26685C20.1506 8.55988 20.0919 8.70194 20.0232 8.86646L20.0231 8.86685C19.9489 9.04504 19.8648 9.24736 19.7887 9.64878C19.7583 9.80943 19.7432 9.92736 19.7301 10.0312L19.7292 10.0377L19.7284 10.0437C19.7072 10.2101 19.693 10.3222 19.6254 10.5217C19.5706 10.6845 19.4789 10.9564 19.258 11.2492C19.0795 11.4861 18.7808 11.8826 18.3822 11.9301C18.3476 11.9324 18.2752 11.936 18.2457 11.9209C17.115 11.3435 16.1435 10.9169 15.8072 10.8212C15.4162 10.7103 15.4662 9.85756 15.5105 9.10517C15.5303 8.76891 15.5491 8.45097 15.5333 8.17872C15.4783 7.22891 15.3102 6.1893 14.483 5.68246C13.9892 5.38001 13.3521 5.29123 12.7435 5.28994C12.8563 5.23626 12.9821 5.16336 13.1191 5.08362L13.1234 5.08117C13.4817 4.87369 13.9266 4.61601 14.3687 4.57072C14.5132 4.5564 14.6552 4.53975 14.7954 4.52414C15.6865 4.42323 16.4564 4.33653 17.2684 4.61459C17.6365 4.74091 18.3916 5.1622 18.5866 5.5533C18.7239 5.82943 18.9555 6.04465 19.4176 6.4742C19.6581 6.69794 19.8165 6.82814 19.9325 6.92336L19.9378 6.92775C20.1007 7.06169 20.1328 7.08969 20.1813 7.18865C20.331 7.49382 20.2764 7.81794 20.2007 8.26685Z" fill="white"/>
<path d="M16.0874 12.1713C16.1409 12.1898 16.1609 12.2548 16.1298 12.302C16.0091 12.4853 15.8707 12.7366 15.7049 13.044C15.6271 13.1889 15.5534 13.3257 15.4916 13.4324C15.2725 13.8086 15.2547 14.1253 15.2408 14.3795C15.2257 14.6453 15.2123 14.7673 15.0534 14.8733C14.9223 14.9611 14.788 14.9904 13.857 15.1322C13.6946 15.1574 13.6225 15.1889 13.5591 15.2165C13.5418 15.224 13.5247 15.2315 13.505 15.2388C13.4512 15.2589 13.3986 15.2131 13.4018 15.156C13.4092 15.0218 13.414 14.8542 13.4145 14.6433V14.6029C13.4194 14.4205 13.4118 14.2725 13.4052 14.1531C13.3929 13.9155 13.3914 13.8153 13.4547 13.7118C13.5325 13.5868 13.5932 13.5486 13.6929 13.4854C13.8321 13.3979 14.0231 13.2775 14.3057 12.8891C14.4559 12.6835 14.4892 12.572 14.51 12.4756C14.519 12.4356 14.5222 12.4206 14.6378 12.333C14.76 12.2402 15.1325 11.958 15.6093 12.0382C15.7412 12.0605 15.9092 12.1098 16.0874 12.1713Z" fill="white"/>
<path d="M12.3831 16.4636C12.3629 16.4901 12.3391 16.5024 12.3049 16.504C12.2076 16.5082 12.1392 16.484 12.0939 16.4296C11.9979 16.3127 12.0109 16.0778 12.0333 15.9405L12.427 15.8356C12.4578 16.044 12.4723 16.3476 12.3831 16.4636Z" fill="white"/>
<path d="M12.415 15.0428C12.4084 15.1002 12.4012 15.1649 12.4014 15.2325C12.402 15.2577 12.4022 15.2831 12.403 15.3077C12.4038 15.3721 12.4063 15.4743 12.3974 15.5208C12.2745 15.5655 12.1694 15.5655 12.0314 15.5631C12.0293 15.5232 12.0319 15.4637 12.0334 15.4236C12.0342 15.3926 12.0359 15.3618 12.0363 15.3324C12.0367 15.2997 12.0363 15.2676 12.0363 15.2355C12.0358 15.1597 12.0347 15.0356 12.0533 14.9991C12.0903 14.9937 12.1283 14.9855 12.1689 14.9762C12.2503 14.9587 12.3565 14.9362 12.4242 14.9464C12.4231 14.9728 12.419 15.0119 12.415 15.0428Z" fill="white"/>
<path d="M11.6866 16.3424C11.6676 16.5442 11.6053 16.7938 11.416 16.8317C11.3309 16.8493 11.2897 16.8236 11.2638 16.7992C11.1359 16.6807 11.1155 16.3228 11.1333 16.0668C11.2185 16.0684 11.3301 16.0493 11.4622 16.0237C11.5429 16.0077 11.6231 15.9899 11.687 15.9752C11.6943 16.0699 11.6996 16.2051 11.6866 16.3424Z" fill="white"/>
<path d="M11.5972 15.6179L11.1701 15.7678C11.1918 15.6019 11.2207 15.3687 11.2309 15.2137C11.2382 15.1045 11.2679 15.0711 11.2764 15.0639C11.2792 15.0614 11.2849 15.0563 11.3008 15.0563C11.3032 15.0563 11.3057 15.0567 11.3084 15.0567L11.3174 15.0579L11.5872 15.0432C11.5987 15.1701 11.5987 15.4487 11.5972 15.6179Z" fill="white"/>
<path d="M10.9071 15.4851C10.883 15.5494 10.8545 15.7315 10.8367 15.8596L10.3017 15.8433C10.3319 15.6777 10.3737 15.509 10.4196 15.3747C10.4661 15.2411 10.5162 15.141 10.5622 15.1129C10.6159 15.0806 10.7341 15.0734 10.8065 15.1352C10.9242 15.2356 10.9567 15.3504 10.9071 15.4851Z" fill="white"/>
<path d="M10.7074 17.1226C10.666 17.1793 10.6199 17.208 10.5629 17.2141C10.5047 17.2207 10.4594 17.2076 10.4232 17.1738C10.2552 17.0187 10.2689 16.5106 10.2751 16.2663C10.4969 16.2158 10.7364 16.1728 10.85 16.1662C10.867 16.3707 10.8719 16.8987 10.7074 17.1226Z" fill="white"/>
<path d="M10.0092 15.8289C9.98312 15.8986 9.95783 15.9644 9.93873 16.0227C9.87653 16.0422 9.68634 16.0252 9.49215 15.9824L9.6257 15.1404C9.84505 15.0822 10.0995 15.0635 10.161 15.1287C10.2421 15.2147 10.0792 15.6454 10.0092 15.8289Z" fill="white"/>
<path d="M9.76712 17.2507C9.66338 17.3786 9.50777 17.4383 9.29073 17.436C9.14054 17.4336 9.08686 17.3765 9.06003 17.3338C8.93951 17.143 9.05744 16.6931 9.17564 16.4057L9.90028 16.4492C9.90764 16.4996 9.9137 16.5611 9.91654 16.6279C9.92454 16.8324 9.89887 17.0871 9.76712 17.2507Z" fill="white"/>
<path d="M15.7555 11.141C15.1031 10.9562 15.1592 10.0023 15.2136 9.08036C15.2328 8.75417 15.251 8.44565 15.2361 8.19352C15.1861 7.33056 15.0409 6.39068 14.3469 5.96527C13.6003 5.50875 12.379 5.61275 11.6254 5.70862C11.6248 5.70875 11.6242 5.70913 11.6235 5.70926C11.6231 5.70926 11.6229 5.70926 11.6226 5.70939C11.3466 5.79301 11.0884 5.8472 10.8883 5.83662C10.4436 5.81365 10.0977 5.62643 9.79305 5.46217C9.55538 5.3334 9.34802 5.22217 9.15279 5.22217C9.14247 5.22217 9.13164 5.22217 9.12093 5.22256C8.5368 5.26049 8.26828 5.4032 8.02441 5.62088C7.96312 5.67507 7.88828 5.83236 7.64338 6.53804C7.51976 6.89468 7.49693 7.08978 7.47396 7.27946C7.45331 7.45275 7.43228 7.63094 7.34015 7.89675C7.27602 8.08023 7.22867 8.23843 7.18286 8.39094C7.06209 8.79623 6.9666 9.11546 6.67976 9.49507C6.64609 9.53998 6.60441 9.60604 6.55615 9.68127C6.49112 9.78372 6.4106 9.91107 6.30441 10.0586C6.22944 10.1624 6.05731 10.5512 6.06673 10.6697C6.0808 10.8583 6.14209 10.9753 6.21228 11.112C6.28209 11.2467 6.36157 11.3992 6.37602 11.6098L6.37848 11.644C6.40402 11.978 6.35641 12.1457 5.72093 12.7133C5.3146 13.0769 5.02596 13.4271 4.83125 13.6841C4.81408 13.7068 4.83641 13.7405 4.8648 13.7382C4.87138 13.7373 4.87796 13.7369 4.88402 13.7369C4.89628 13.7358 4.90841 13.7355 4.92054 13.7355C4.93267 13.7355 4.94492 13.7358 4.95692 13.7364C4.96918 13.7369 4.98093 13.7378 4.99293 13.7396C5.1466 13.7571 5.29641 13.8222 5.40454 13.9342C5.42338 13.9537 5.45267 13.9589 5.4777 13.9489C5.58118 13.9058 5.69486 13.9129 5.8035 13.9231C5.9377 13.9355 6.07318 13.9756 6.16221 14.0622C6.18905 14.0884 6.22738 14.1017 6.26402 14.0933C6.36918 14.0694 6.47951 14.0716 6.58183 14.1087C6.6626 14.1388 6.73047 14.1863 6.78441 14.246C6.82209 14.2878 6.88893 14.2958 6.93615 14.2654C6.96557 14.2464 6.99796 14.2304 7.03396 14.2183C7.17189 14.1715 7.32454 14.1982 7.45847 14.2463C7.52441 14.27 7.59357 14.2912 7.65305 14.3309C7.76235 14.4037 7.82905 14.51 7.87164 14.6289C7.89576 14.6958 7.98596 14.7191 8.04067 14.6735C8.13899 14.5917 8.2168 14.5779 8.29525 14.6127C8.33525 14.6308 8.36312 14.6556 8.38183 14.6867C8.41447 14.7407 8.48092 14.7853 8.5417 14.7682C8.75525 14.7087 9.0226 14.7397 9.21628 14.8435C9.28467 14.8793 9.35189 14.9342 9.40092 15.017L9.40105 15.0171C9.40118 15.0175 9.40157 15.0174 9.40157 15.017L9.40725 14.9802C9.40983 14.9636 9.42157 14.9498 9.4377 14.9447L9.4826 14.9309C9.58841 14.8973 10.1275 14.7419 10.3372 14.9627C10.3462 14.9717 10.362 14.9726 10.3707 14.9632C10.3992 14.9318 10.4225 14.9147 10.4373 14.9062C10.5738 14.8233 10.808 14.8182 10.9638 14.9516C10.9951 14.9779 11.046 14.9684 11.0696 14.9348C11.0842 14.9143 11.1007 14.8961 11.1192 14.8805C11.174 14.8333 11.2432 14.8107 11.32 14.8155L11.6162 14.7995C11.6906 14.7953 11.9221 14.7796 11.995 14.7642C12.0005 14.7631 12.0062 14.762 12.012 14.7611C12.0429 14.7564 12.0795 14.7485 12.1178 14.7405C12.2614 14.7091 12.4244 14.6739 12.5582 14.7357C12.6867 14.7952 12.6705 14.9417 12.655 15.0708C12.6489 15.1232 12.6423 15.1779 12.6429 15.2299C12.6438 15.2542 12.6443 15.2786 12.6447 15.3035C12.6466 15.4148 12.6489 15.5177 12.6269 15.5966V15.5975L12.6404 15.6587C12.6411 15.661 12.6417 15.664 12.6425 15.6676C12.6546 15.7236 12.7147 15.7548 12.7636 15.725C12.8669 15.662 12.9754 15.5802 13.0081 15.5331C13.0106 15.5295 13.0125 15.5258 13.014 15.5217C13.0185 15.5098 13.0269 15.4841 13.036 15.4304C13.0543 15.3204 13.0749 15.0967 13.0767 14.6427C13.0767 14.6187 13.0767 14.6015 13.0772 14.5935C13.0809 14.425 13.0743 14.2898 13.0678 14.1704C13.0556 13.9242 13.0457 13.7306 13.1679 13.5334C13.2869 13.3415 13.4023 13.269 13.5133 13.1987C13.6423 13.1178 13.788 13.0259 14.0333 12.6895C14.1536 12.5238 14.1684 12.457 14.1802 12.4036C14.2069 12.2786 14.2481 12.2033 14.4338 12.0629C14.5851 11.9488 15.0451 11.6001 15.6657 11.7045C15.8692 11.7391 16.1991 11.8476 16.5247 11.9758C16.5247 11.9758 16.5249 11.976 16.5252 11.976H16.5256C16.5377 11.9796 16.5502 11.9838 16.5617 11.9899C16.5658 11.9921 16.5701 11.9942 16.5745 11.996C16.8653 12.1121 17.1483 12.2418 17.3296 12.3454C17.3718 12.3695 17.4258 12.3556 17.4555 12.317C17.5149 12.24 17.5796 12.1953 17.6494 12.1534C17.6756 12.1375 17.6958 12.1254 17.715 12.109C17.7216 12.1035 17.728 12.098 17.7343 12.0929C17.7885 12.049 17.7884 11.9552 17.7263 11.9232C16.8516 11.4709 16.0278 11.2184 15.7555 11.141ZM9.53899 11.3418C9.33718 12.2249 7.96918 13.1956 7.34737 13.1956H7.33512C7.32531 13.1951 7.31447 13.1942 7.30286 13.1922C7.29112 13.1904 7.27847 13.1876 7.26505 13.1838C7.25847 13.1819 7.25138 13.1796 7.24441 13.1778C7.13151 13.1422 6.97525 13.0555 6.85692 12.9391C6.7755 12.8592 6.71138 12.7649 6.69125 12.6633C6.68751 12.6455 6.68377 12.6278 6.67989 12.61C6.64635 12.4598 6.60454 12.2722 6.73705 11.9651C6.75538 11.924 6.77164 11.8855 6.7866 11.8504C6.79138 11.8388 6.79654 11.8271 6.80119 11.8158C6.81525 11.7827 6.82776 11.7522 6.83912 11.7246C6.85783 11.6779 6.87318 11.6382 6.88583 11.6044C6.89099 11.5912 6.89576 11.5786 6.89989 11.5669C6.93783 11.4607 6.94247 11.421 6.94763 11.3798C6.95241 11.3476 6.95706 11.3081 6.97022 11.252C7.00906 11.0863 7.02918 10.9459 7.04699 10.8209C7.07886 10.5961 7.10647 10.402 7.22764 10.2237C7.24828 10.1934 7.27112 10.1657 7.29692 10.1414C7.30583 10.133 7.31434 10.125 7.3235 10.117C7.33292 10.109 7.34234 10.102 7.35151 10.0949C7.38092 10.0743 7.41241 10.0561 7.44647 10.0406C7.45821 10.0355 7.46996 10.0303 7.48157 10.0262C7.50557 10.0173 7.53073 10.0097 7.55705 10.0031C7.66841 9.9761 7.79989 9.97185 7.95099 9.99094C8.11628 10.0041 8.26931 10.0353 8.40492 10.0733C8.51822 10.1045 8.61938 10.1411 8.70493 10.1752C8.71383 10.1786 8.72234 10.1818 8.73073 10.1855C8.74712 10.1921 8.76299 10.1987 8.77847 10.2058C8.80196 10.2156 8.82337 10.225 8.8435 10.2338C8.87021 10.2459 8.8946 10.2568 8.91615 10.2664L8.93628 10.2758C9.03176 10.3193 9.11383 10.3671 9.18389 10.4171C9.21847 10.4426 9.25086 10.4682 9.27976 10.4943C9.2897 10.5028 9.29912 10.5117 9.30777 10.521C9.31718 10.53 9.32609 10.5389 9.33448 10.5478C9.59731 10.8246 9.58428 11.1447 9.53899 11.3418ZM10.1729 7.99456L10.1463 8.15469C10.0851 8.51546 9.94415 9.01017 9.42467 9.13752C8.92492 9.25972 8.80647 9.28578 8.45073 9.30178C8.44286 9.30268 8.43434 9.30268 8.42596 9.30268C8.16621 9.30268 7.66634 9.13894 7.57783 8.73172C7.52118 8.46965 7.6368 8.27972 7.82725 7.96475C7.85899 7.91275 7.89331 7.85701 7.9297 7.79482C8.18144 7.37069 8.28067 7.06372 8.36041 6.81752C8.43796 6.57701 8.5026 6.37817 8.6688 6.21339C8.70712 6.17507 8.7506 6.13894 8.80118 6.10436C8.83344 6.0823 8.86712 6.06269 8.90273 6.04436C8.94996 6.02088 8.9995 6.00049 9.0515 5.98398C9.16712 5.94707 9.29202 5.92836 9.41705 5.92836C9.65938 5.92836 9.90144 5.99804 10.0741 6.13662C10.1518 6.19881 10.2622 6.3232 10.3263 6.69017C10.3594 6.8792 10.3031 7.22656 10.1729 7.99456ZM13.8791 9.02139C13.7003 9.32836 13.6025 9.4974 13.448 9.62411C13.1416 9.87585 12.784 9.93959 12.4896 9.93959C12.2781 9.93959 12.0985 9.90694 11.9927 9.88759C11.6884 9.83198 11.1222 9.72901 10.9336 9.28204C10.8967 9.19365 10.8963 9.13753 10.8963 9.0663C10.8963 8.99598 10.8963 8.87778 10.8635 8.59636L10.8617 8.57765C10.8466 8.4503 10.8298 8.30617 10.8663 8.12127L10.8706 8.0992C10.9773 7.55649 11.0062 7.47353 11.0302 7.42669C11.0854 7.31998 11.2164 7.27791 11.3231 7.33275C11.4265 7.38655 11.4696 7.51185 11.4209 7.61714C11.4101 7.64797 11.3798 7.76359 11.2973 8.18346L11.2931 8.20552C11.2696 8.32397 11.2799 8.41378 11.2936 8.52759L11.2954 8.54682C11.3309 8.85236 11.3309 8.99081 11.3309 9.06578C11.3309 9.07907 11.3309 9.09352 11.3314 9.10217C11.3315 9.10552 11.3332 9.10991 11.3342 9.11314C11.3696 9.19701 11.4493 9.26062 11.5465 9.30952C11.6069 9.33985 11.67 9.28217 11.6565 9.21597C11.5599 8.73765 11.5652 8.17972 11.7479 7.83494C11.8078 7.72049 11.9185 7.53314 12.0236 7.3583C12.024 7.35778 12.0243 7.35739 12.0245 7.35688C12.0248 7.35636 12.0252 7.35598 12.0254 7.35546C12.0361 7.33778 12.0467 7.32036 12.0573 7.30281C12.0662 7.28772 12.0751 7.27339 12.0834 7.25933C12.1297 7.18243 12.1732 7.11185 12.208 7.05572C12.2127 7.04772 12.2173 7.03972 12.2221 7.03223C12.2253 7.02656 12.2287 7.0214 12.2319 7.01675C12.2394 7.00449 12.246 6.99326 12.2522 6.98359C12.2549 6.97894 12.2577 6.97469 12.26 6.97043C12.2614 6.96862 12.2625 6.96668 12.2634 6.96527C12.2666 6.95959 12.27 6.95443 12.2728 6.9503C12.2783 6.94139 12.2826 6.93482 12.2849 6.93056C12.2852 6.93017 12.2853 6.92991 12.2854 6.92952C12.286 6.92862 12.287 6.9272 12.2875 6.9263C12.2879 6.92565 12.288 6.92552 12.2884 6.92488C12.3247 6.87211 12.3605 6.82191 12.3954 6.77469C12.4427 6.71056 12.3879 6.62656 12.3141 6.65675C12.1365 6.72914 12.0152 6.82165 11.9906 6.84114C11.8965 6.9161 11.7598 6.90062 11.6854 6.80656C11.611 6.71262 11.6265 6.57546 11.7205 6.50049C11.8324 6.41262 12.4253 5.9801 13.1354 6.1832C13.647 6.32875 13.9151 6.71959 14.0162 6.86656C14.0976 6.98591 14.3471 7.34823 14.3391 7.85404C14.3332 8.23985 14.1723 8.51739 13.8791 9.02139Z" fill="white"/>
<path d="M9.26763 6.3759C9.23125 6.4639 9.18776 6.57293 9.14105 6.69138C9.03189 6.96571 8.90815 7.27641 8.84866 7.38906C8.74608 7.58377 8.66621 7.70661 8.60247 7.80557C8.52944 7.91925 8.47125 8.00919 8.42737 8.13461C8.35034 8.35396 8.33653 8.59912 8.3866 8.8657C8.2506 8.85074 8.02802 8.75706 8.00286 8.63899C7.98402 8.55112 8.0386 8.455 8.1995 8.19035C8.23176 8.13758 8.26634 8.08016 8.30415 8.01629C8.58066 7.55061 8.69254 7.20415 8.77486 6.95086C8.86363 6.67525 8.90557 6.55964 9.04686 6.46312C9.11008 6.41912 9.18699 6.39112 9.26763 6.3759Z" fill="white"/>
<path d="M8.99756 16.1416C8.84685 16.4494 8.65924 16.7336 8.54234 16.8743C8.44556 16.6127 8.27731 16.0131 8.32169 15.5306C8.32298 15.5167 8.32453 15.5029 8.3266 15.4894C8.3444 15.3404 8.38402 15.2038 8.45447 15.0942C8.50092 15.0222 8.62956 14.9782 8.77563 14.9782C8.8835 14.9782 9.00079 15.0018 9.10182 15.056H9.1026C9.15666 15.0849 9.23034 15.1435 9.23808 15.3137C9.24918 15.5436 9.13963 15.8527 8.99756 16.1416Z" fill="white"/>
<path d="M17.255 12.6916C17.2666 12.701 17.274 12.7152 17.2673 12.7287C17.2222 12.8191 17.1683 12.8826 17.1045 12.9573C17.0276 13.0489 16.9396 13.1528 16.8578 13.3147C16.7413 13.5443 16.704 13.7537 16.6844 14.2898C16.6613 14.9196 16.6857 15.2734 16.704 15.5314C16.7214 15.7805 16.7322 15.9307 16.6878 16.1737C16.5982 16.6639 16.3885 16.9884 16.123 17.3991C15.7907 17.9128 15.4471 18.4438 14.8781 18.6131C14.8252 18.6293 14.8234 18.6293 14.675 18.6298C14.5458 18.6298 14.331 18.6303 13.9243 18.6453C13.1809 18.6723 12.808 18.6857 12.4889 18.747C12.1542 18.8118 11.9796 18.883 11.8104 18.9514C11.6576 19.0132 11.5132 19.0719 11.2364 19.1288C11.0714 19.1621 10.8248 19.1985 9.98454 19.1998C9.11125 19.2013 8.58403 19.2017 7.8879 19.1223C6.9328 19.0133 6.45332 18.9587 6.13487 18.7887C5.38377 18.388 5.06661 17.6675 4.54197 16.4738C4.54106 16.4718 4.54016 16.4697 4.53925 16.4675C4.5328 16.4527 4.55087 16.4383 4.5648 16.4466C4.58971 16.4621 4.61564 16.4749 4.643 16.484C4.66596 16.4921 4.68983 16.4983 4.71396 16.5023C4.76196 16.5105 4.81203 16.511 4.86287 16.5023C4.87177 16.5008 4.8799 16.4987 4.88777 16.4955C4.88932 16.4949 4.89074 16.4941 4.89229 16.4934C4.90119 16.489 4.91216 16.4927 4.9159 16.5018C4.94932 16.5938 5.00235 16.6758 5.09138 16.723C5.18055 16.7694 5.28196 16.773 5.38119 16.7723C5.48338 16.7707 5.58635 16.7649 5.68816 16.7527C5.74209 16.747 5.79732 16.7734 5.81796 16.8236C5.91125 17.0497 6.02674 17.2133 6.20029 17.2374C6.20971 17.2387 6.22196 17.2403 6.23745 17.2403C6.27654 17.2403 6.33693 17.2289 6.42209 17.1703C6.48803 17.1252 6.59009 17.1518 6.63745 17.2161C6.6808 17.2749 6.73241 17.317 6.7768 17.3527C6.95551 17.5361 7.38983 17.6241 7.75461 17.6241C7.95358 17.6241 8.13203 17.598 8.23706 17.5469C8.38725 17.474 8.38725 17.3621 8.3799 17.3168C8.36712 17.2356 8.35551 17.1551 8.3457 17.0754C8.34454 17.0658 8.359 17.0621 8.36287 17.071C8.38467 17.1186 8.41138 17.178 8.48248 17.1894C8.49022 17.1902 8.49886 17.1919 8.50867 17.1919C8.61035 17.1919 8.76854 17.225 8.79577 17.323C8.8097 17.3729 8.82932 17.4196 8.85603 17.4618C8.91706 17.5585 9.04132 17.6736 9.28764 17.6777H9.30674C9.58958 17.6777 9.8079 17.5852 9.95513 17.4023C9.96467 17.3906 9.97383 17.3785 9.98261 17.3662C10.0355 17.2916 10.1927 17.2884 10.2599 17.3503C10.3356 17.4204 10.431 17.4565 10.5372 17.4565C10.5542 17.4565 10.5715 17.4558 10.5893 17.4537C10.7159 17.4403 10.8254 17.3732 10.9073 17.2587C10.9608 17.184 10.9999 17.0921 11.0284 16.9928C11.0368 16.9635 11.0771 16.9549 11.0995 16.9754C11.1536 17.0254 11.2403 17.0783 11.3653 17.0783C11.3958 17.0783 11.4288 17.0751 11.4639 17.0678C11.7096 17.0183 11.8319 16.815 11.8898 16.5854C11.8918 16.5777 11.9029 16.5756 11.908 16.5817C11.9702 16.6574 12.0851 16.7449 12.2849 16.7449C12.2951 16.7449 12.3057 16.7449 12.3162 16.7444C12.422 16.7395 12.5111 16.693 12.5755 16.61C12.6538 16.5079 12.6847 16.3565 12.6918 16.2043C12.6938 16.1599 12.7225 16.1209 12.7635 16.1038C12.9743 16.0156 13.2297 15.8258 13.3045 15.6965C13.3071 15.692 13.3097 15.6872 13.3123 15.6823C13.3294 15.649 13.3589 15.6227 13.3956 15.6158C13.559 15.5848 13.6302 15.554 13.695 15.5258C13.7478 15.5026 13.7902 15.4843 13.9089 15.4658C14.8534 15.3217 15.0378 15.29 15.2422 15.1537C15.5479 14.9498 15.5634 14.6692 15.5785 14.3977C15.5914 14.1681 15.6061 13.9076 15.7844 13.6019C15.8492 13.4903 15.9239 13.3511 16.0034 13.2038C16.1425 12.9458 16.3368 12.5847 16.4759 12.3954C16.5021 12.3596 16.5494 12.3485 16.5902 12.3658C16.9167 12.5045 17.1947 12.6434 17.255 12.6916Z" fill="white"/>
<path d="M8.08248 15.5021C8.04506 15.8287 8.02222 16.2649 8.07512 16.8332C8.09009 16.9936 8.111 17.16 8.13693 17.3287C8.09216 17.353 7.95848 17.3872 7.7208 17.3835C7.37925 17.3767 7.04674 17.2907 6.94687 17.1827L6.93138 17.1688C6.84828 17.1021 6.79383 17.0581 6.78609 16.9388C6.78351 16.8986 6.8008 16.8587 6.8377 16.8023C6.85809 16.7706 6.88493 16.7339 6.91822 16.6888C6.97564 16.6117 7.04687 16.5157 7.11977 16.3919C7.33358 16.0307 7.41461 15.9192 7.51757 15.7783C7.5257 15.767 7.53435 15.7555 7.54325 15.7438C7.6039 15.6607 7.67513 15.5613 7.78222 15.3981C7.86196 15.2769 7.92829 15.1819 7.983 15.1074C8.07422 14.9834 8.13396 14.916 8.17228 14.8794C8.16661 14.9356 8.15396 15.0146 8.1417 15.0875C8.12364 15.1996 8.1008 15.3368 8.08248 15.5021Z" fill="white"/>
<path d="M7.92595 10.425C7.92389 10.4278 7.92144 10.4307 7.91937 10.4336C7.87499 10.4952 7.82415 10.5647 7.7635 10.7002C7.60066 11.0622 7.59757 11.2671 7.59499 11.4318C7.59344 11.5182 7.59253 11.5869 7.56892 11.6672C7.55266 11.7201 7.52621 11.7807 7.49563 11.8507C7.39963 12.0706 7.27421 12.3588 7.33047 12.7467C7.25266 12.7093 7.13369 12.6237 7.11718 12.5782C7.11305 12.557 7.10853 12.5362 7.10376 12.5155C7.07679 12.3944 7.05899 12.3156 7.13589 12.1384C7.33821 11.6718 7.36312 11.5613 7.37899 11.4342C7.38221 11.4064 7.38557 11.3849 7.3937 11.3498C7.43641 11.1658 7.45873 11.0082 7.47705 10.8817C7.50428 10.6895 7.5226 10.5624 7.58737 10.4668C7.61099 10.4315 7.67782 10.4131 7.77344 10.4131C7.81124 10.4131 7.85395 10.416 7.90054 10.4226L7.91137 10.4233C7.91615 10.4238 7.92118 10.4242 7.92595 10.425Z" fill="white"/>
<path d="M7.65912 15.0276C7.64815 14.9157 7.62854 14.8036 7.58789 14.6982C7.58505 14.6929 7.57292 14.6659 7.57034 14.6608C7.56299 14.6474 7.5546 14.6347 7.54673 14.6214C7.54621 14.6209 7.54595 14.6209 7.54595 14.6205C7.54544 14.6197 7.54518 14.6197 7.54518 14.6194C7.54067 14.6145 7.53653 14.6097 7.53215 14.605C7.52557 14.5985 7.51847 14.5921 7.51138 14.5863C7.51009 14.5848 7.50892 14.5835 7.50776 14.583C7.50454 14.5803 7.49963 14.5764 7.49434 14.5733C7.4857 14.5688 7.47757 14.5639 7.46918 14.5596C7.4666 14.5579 7.46054 14.5555 7.45486 14.5534C7.45486 14.5534 7.45447 14.5534 7.45447 14.553C7.45318 14.5525 7.45189 14.5523 7.45086 14.5518C7.44957 14.551 7.44879 14.5505 7.44802 14.5502C7.44673 14.5497 7.44596 14.5494 7.44518 14.5494C7.44441 14.5494 7.44441 14.5489 7.44441 14.5489C7.44183 14.5476 7.44028 14.5474 7.43912 14.5468C7.37396 14.523 7.30789 14.4968 7.23873 14.4866C7.23834 14.4866 7.23718 14.4862 7.23628 14.4862H7.23473C7.22699 14.4862 7.21112 14.4847 7.21034 14.4847C7.20067 14.4841 7.19125 14.4841 7.18183 14.4847C7.17731 14.4847 7.17292 14.4847 7.1688 14.485H7.16518C7.16363 14.485 7.1617 14.4856 7.15963 14.4856C7.15886 14.4863 7.15757 14.4863 7.15705 14.4863C7.15667 14.4863 7.15628 14.4863 7.15628 14.4863C7.14079 14.4908 7.12454 14.495 7.10905 14.4997C7.10247 14.5031 7.09525 14.5063 7.08867 14.5105C7.08312 14.5137 7.07731 14.5178 7.07163 14.5207C7.07124 14.521 7.07047 14.5218 7.06957 14.5218L7.06841 14.5231C7.06105 14.5305 7.05331 14.5373 7.04595 14.5447C7.0435 14.5472 7.03666 14.5556 7.03176 14.5618C7.03047 14.5626 7.0297 14.5634 7.0297 14.5641C7.02931 14.5645 7.02931 14.5645 7.02892 14.5649C7.02854 14.5653 7.02853 14.5657 7.02763 14.5661C7.02724 14.5666 7.02725 14.567 7.02686 14.567C7.02492 14.5705 7.02286 14.5734 7.02208 14.5751C6.99589 14.6158 6.96944 14.6561 6.94221 14.6963C6.8795 14.7924 6.81524 14.888 6.75008 14.983C6.6906 15.0689 6.63124 15.1548 6.57215 15.2407C6.53912 15.2888 6.5066 15.3363 6.47409 15.3844C6.46841 15.3925 6.46312 15.4007 6.45783 15.4088C6.49641 15.4161 6.53512 15.4238 6.57421 15.4311C6.6617 15.4471 6.74879 15.4625 6.83757 15.4746C7.02028 15.4995 7.20609 15.511 7.39125 15.5044C7.40015 15.5039 7.40905 15.5044 7.41731 15.5059C7.46183 15.4425 7.51421 15.3667 7.58105 15.2653C7.61808 15.2087 7.65344 15.1563 7.68673 15.1077C7.67176 15.0845 7.66234 15.0568 7.65912 15.0276Z" fill="white"/>
<path d="M7.00828 15.7827C6.99254 15.9236 6.83486 16.2883 6.58893 16.6355C6.38299 16.9258 6.25796 16.9963 6.23306 16.9987C6.1337 16.9849 6.03564 16.739 5.95783 16.4951C5.92661 16.3963 5.89835 16.2977 5.87473 16.2151C5.82144 16.0295 5.81177 15.7806 5.82106 15.6244C6.0288 15.7395 6.39345 15.7705 6.9057 15.7725H6.90725C6.94106 15.7761 6.97448 15.7799 7.00828 15.7827Z" fill="white"/>
<path d="M6.64402 14.6226C6.64402 14.6231 6.64402 14.6231 6.64402 14.6234C6.64157 14.6267 6.6395 14.6303 6.63718 14.6335C6.54918 14.763 6.46054 14.8917 6.37176 15.0206C6.32583 15.0871 6.28028 15.1534 6.23499 15.2203C6.21022 15.2565 6.17679 15.2964 6.14789 15.3395C6.07499 15.3223 6.00221 15.3057 5.93009 15.2853C5.87112 15.2683 5.81292 15.2499 5.75576 15.2271C5.74428 15.223 5.73331 15.2184 5.72273 15.2133C5.71331 15.1942 5.69989 15.177 5.68363 15.164C5.68402 15.1636 5.68402 15.1625 5.6844 15.1619C5.70518 15.1196 5.72634 15.0769 5.74712 15.0346C5.7866 14.9569 5.82621 14.8796 5.87009 14.8046C5.94841 14.6694 6.04273 14.5319 6.17512 14.4443C6.1817 14.4394 6.18892 14.4348 6.19589 14.4305C6.24725 14.3982 6.2986 14.3755 6.36157 14.3677C6.36892 14.367 6.41331 14.3672 6.43409 14.369C6.4377 14.369 6.44066 14.3694 6.44273 14.3694H6.44312C6.44466 14.3699 6.44763 14.3707 6.45202 14.3723C6.4675 14.3772 6.48312 14.3804 6.4986 14.3857C6.50389 14.3883 6.50867 14.3906 6.51409 14.3934C6.5275 14.4015 6.54131 14.4089 6.55396 14.4191C6.53357 14.4036 6.58208 14.4537 6.58208 14.4501C6.62118 14.5041 6.63305 14.5494 6.64402 14.6226Z" fill="white"/>
<path d="M5.94725 14.2556C5.78442 14.3896 5.66596 14.5679 5.56712 14.7534C5.51164 14.8564 5.46158 14.9614 5.40945 15.0661C5.40416 15.0768 5.39887 15.087 5.3928 15.0974C5.34351 15.0867 5.29422 15.0725 5.24609 15.0572C5.19487 15.0409 5.1439 15.0222 5.09512 14.9995C5.0728 14.9888 5.05035 14.9778 5.02803 14.9661C5.0768 14.8737 5.135 14.7849 5.19048 14.6987C5.26867 14.5769 5.35332 14.4573 5.44532 14.3449C5.4799 14.3022 5.51654 14.2554 5.56506 14.2272C5.61461 14.1979 5.67461 14.2049 5.73151 14.2081C5.79177 14.2119 5.85654 14.2134 5.91345 14.2363C5.92519 14.2413 5.93796 14.2492 5.94725 14.2556Z" fill="white"/>
<path d="M5.68867 16.4409C5.68054 16.4477 5.6737 16.4551 5.66764 16.4637C5.66196 16.4653 5.65615 16.4666 5.65254 16.4675C5.61345 16.4715 5.57357 16.4743 5.53409 16.4769C5.45835 16.4817 5.38145 16.485 5.30493 16.4822C5.26222 16.4806 5.22351 16.474 5.20596 16.4468C5.17783 16.4041 5.16932 16.3295 5.15925 16.2729C5.10919 15.9948 5.10261 15.7051 5.13809 15.4237C5.28338 15.4758 5.43293 15.5162 5.58622 15.5414C5.55319 15.7951 5.60944 16.1675 5.64235 16.2815C5.6577 16.3346 5.67319 16.3882 5.68867 16.4409Z" fill="white"/>
<path d="M5.22118 14.163C5.09253 14.3209 4.97537 14.489 4.87021 14.6632C4.82776 14.7341 4.77976 14.8073 4.7444 14.8831C4.69344 14.8689 4.6475 14.8485 4.59873 14.8183C4.56131 14.7951 4.52492 14.7694 4.48956 14.7426C4.48066 14.7352 4.45627 14.7161 4.44105 14.7039C4.43756 14.7011 4.43421 14.6983 4.43047 14.6962C4.44221 14.663 4.46376 14.6258 4.47563 14.6009C4.5026 14.5419 4.53266 14.484 4.56415 14.4276C4.62389 14.3218 4.69073 14.2183 4.76647 14.1231C4.7946 14.088 4.82131 14.0428 4.86505 14.0298C4.90492 14.0184 4.95744 14.0237 4.98956 14.0293C5.08479 14.0477 5.15937 14.091 5.22118 14.163Z" fill="white"/>
<path d="M4.22995 14.8485C4.23176 14.8418 4.24053 14.8409 4.24453 14.8466C4.27834 14.8947 4.32543 14.9365 4.37602 14.9758C4.3986 14.993 4.42092 15.01 4.44376 15.0262C4.44659 15.0282 4.44789 15.0317 4.44711 15.0352C4.39382 15.256 4.35743 15.4904 4.35808 15.7214C4.35808 15.7316 4.34272 15.7337 4.3404 15.7237C4.27524 15.4548 4.18673 15.0066 4.22995 14.8485Z" fill="white"/>
<path d="M4.85977 15.3287C4.8337 15.5208 4.82118 15.7134 4.82957 15.9071C4.8337 16.0133 4.84506 16.1189 4.85938 16.2238C4.85938 16.2245 4.85938 16.2254 4.85977 16.2258V16.2263C4.83693 16.2211 4.81306 16.2203 4.78867 16.2238C4.79344 16.2222 4.78093 16.223 4.77564 16.223H4.77409C4.77048 16.2226 4.76518 16.2222 4.76338 16.2218C4.73654 16.2153 4.73422 16.2124 4.71293 16.199C4.68519 16.1811 4.6559 16.1484 4.63641 16.1151C4.58467 16.0256 4.57332 15.9168 4.56919 15.8154C4.56157 15.6164 4.57861 15.4177 4.61577 15.2227C4.64751 15.2356 4.67512 15.2475 4.72118 15.2674C4.76673 15.2873 4.81396 15.3069 4.86003 15.3282V15.3287H4.85977Z" fill="white"/>
<defs>
<radialGradient id="paint0_radial_477_206" cx="0" cy="0" r="1" gradientUnits="userSpaceOnUse" gradientTransform="translate(12 13.2576) rotate(90) scale(13.4817)">
<stop offset="0.166667" stop-color="#073183"/>
<stop offset="1" stop-color="#0054F9"/>
</radialGradient>
<linearGradient id="paint1_linear_477_206" x1="-2.19187" y1="-2.0852" x2="25.244" y2="26.7103" gradientUnits="userSpaceOnUse">
<stop offset="0.205697" stop-color="#89D0FF"/>
<stop offset="0.398413" stop-color="#EBBF9A"/>
<stop offset="0.601546" stop-color="#EB8280"/>
<stop offset="0.841139" stop-color="#A281FF"/>
</linearGradient>
<linearGradient id="paint2_linear_477_206" x1="-1.12351" y1="-0.852783" x2="24.1693" y2="25.8021" gradientUnits="userSpaceOnUse">
<stop offset="0.205697" stop-color="#89D0FF"/>
<stop offset="0.398413" stop-color="#EBBF9A"/>
<stop offset="0.601546" stop-color="#EB80DA"/>
<stop offset="0.841139" stop-color="#A281FF"/>
</linearGradient>
<linearGradient id="paint3_linear_477_206" x1="-0.0510887" y1="0.217645" x2="23.0983" y2="24.7313" gradientUnits="userSpaceOnUse">
<stop offset="0.205697" stop-color="#89D0FF"/>
<stop offset="0.398413" stop-color="#EBBF9A"/>
<stop offset="0.601546" stop-color="#EB8280"/>
<stop offset="0.841139" stop-color="#A281FF"/>
</linearGradient>
<linearGradient id="paint4_linear_477_206" x1="1.01944" y1="1.29175" x2="22.0206" y2="23.6577" gradientUnits="userSpaceOnUse">
<stop offset="0.205697" stop-color="#89D0FF"/>
<stop offset="0.398413" stop-color="#EBBF9A"/>
<stop offset="0.601546" stop-color="#EB80E7"/>
<stop offset="0.841139" stop-color="#A281FF"/>
</linearGradient>
<linearGradient id="paint5_linear_477_206" x1="2.08958" y1="2.36182" x2="20.9465" y2="22.5783" gradientUnits="userSpaceOnUse">
<stop offset="0.205697" stop-color="#89D0FF"/>
<stop offset="0.398413" stop-color="#EBBF9A"/>
<stop offset="0.601546" stop-color="#EB80D3"/>
<stop offset="0.841139" stop-color="#A281FF"/>
</linearGradient>
<linearGradient id="paint6_linear_477_206" x1="3.15848" y1="3.43189" x2="19.8694" y2="21.5071" gradientUnits="userSpaceOnUse">
<stop offset="0.205697" stop-color="#89D0FF"/>
<stop offset="0.398413" stop-color="#EBBF9A"/>
<stop offset="0.601546" stop-color="#A280EB"/>
<stop offset="0.841139" stop-color="#A281FF"/>
</linearGradient>
</defs>
</svg>
