<svg width="24" height="24" viewBox="0 0 24 24" fill="none" xmlns="http://www.w3.org/2000/svg">
<path d="M12 24C18.6274 24 24 18.6274 24 12C24 5.37258 18.6274 0 12 0C5.37258 0 0 5.37258 0 12C0 18.6274 5.37258 24 12 24Z" fill="#2E3148"/>
<path d="M12.0001 18.963C15.8456 18.963 18.963 15.8456 18.963 12.0001C18.963 8.15451 15.8456 5.03708 12.0001 5.03708C8.15453 5.03708 5.03711 8.15451 5.03711 12.0001C5.03711 15.8456 8.15453 18.963 12.0001 18.963Z" fill="#1B1E36"/>
<path d="M12.0246 1.53094C10.7293 1.53094 9.67895 6.22918 9.67895 12.0248C9.67895 17.8204 10.7293 22.5187 12.0246 22.5187C13.3199 22.5187 14.3703 17.8204 14.3703 12.0248C14.3703 6.22918 13.3199 1.53094 12.0246 1.53094ZM12.1866 21.9264C12.0384 22.124 11.8903 21.9758 11.8903 21.9758C11.2938 21.2846 10.9955 20.0005 10.9955 20.0005C9.95207 16.6425 10.2004 9.43261 10.2004 9.43261C10.6908 3.7087 11.5828 2.35654 11.8864 2.05635C11.9174 2.02571 11.9582 2.00699 12.0016 2.00348C12.0451 1.99997 12.0884 2.01189 12.1239 2.03715C12.5643 2.34925 12.9337 3.65446 12.9337 3.65446C14.0246 7.70384 13.9258 11.5063 13.9258 11.5063C14.0246 14.8149 13.3792 18.5186 13.3792 18.5186C12.8824 21.3333 12.1866 21.9264 12.1866 21.9264Z" fill="#B7B9C8"/>
<path d="M21.1269 6.80247C20.482 5.6785 15.8844 7.10563 10.8549 9.98967C5.82534 12.8737 2.27757 16.123 2.92202 17.2465C3.56646 18.37 8.16448 16.9433 13.194 14.0593C18.2236 11.1753 21.7713 7.92596 21.1269 6.80247ZM3.51702 17.0923C3.27011 17.0612 3.32589 16.8583 3.32589 16.8583C3.62877 15.9971 4.59261 15.0993 4.59261 15.0993C6.98713 12.523 13.365 9.15063 13.365 9.15063C18.5734 6.7274 20.1912 6.82964 20.6016 6.94263C20.6437 6.95439 20.6803 6.98067 20.7049 7.01683C20.7295 7.053 20.7405 7.0967 20.736 7.1402C20.6866 7.6778 19.7359 8.6474 19.7359 8.6474C16.7684 11.6099 13.4208 13.4168 13.4208 13.4168C10.6 15.1496 7.06624 16.432 7.06624 16.432C4.37738 17.401 3.51702 17.0923 3.51702 17.0923Z" fill="#B7B9C8"/>
<path d="M21.1039 17.2838C21.7539 16.1628 18.215 12.8987 13.2032 9.99299C8.19136 7.08729 3.59443 5.64251 2.94509 6.76541C2.29575 7.88831 5.834 11.1505 10.8487 14.0562C15.8634 16.9619 20.4546 18.4068 21.1039 17.2838ZM3.37574 7.19855C3.27974 6.97094 3.4824 6.91612 3.4824 6.91612C4.37961 6.74669 5.63989 7.13279 5.63989 7.13279C9.06851 7.91355 15.1822 11.7431 15.1822 11.7431C19.8894 15.037 20.6113 16.4878 20.7195 16.8996C20.7305 16.9419 20.7262 16.9866 20.7074 17.026C20.6886 17.0654 20.6565 17.0969 20.6167 17.115C20.1259 17.3397 18.8113 17.0048 18.8113 17.0048C14.7594 15.9184 11.519 13.9279 11.519 13.9279C8.60742 12.3575 5.7284 9.94125 5.7284 9.94125C3.54077 8.09931 3.37642 7.20105 3.37642 7.20105L3.37574 7.19855Z" fill="#B7B9C8"/>
<path d="M11.9999 13.2346C12.6818 13.2346 13.2345 12.6818 13.2345 12C13.2345 11.3182 12.6818 10.7654 11.9999 10.7654C11.3181 10.7654 10.7654 11.3182 10.7654 12C10.7654 12.6818 11.3181 13.2346 11.9999 13.2346Z" fill="#B7B9C8"/>
<path d="M17.0616 7.99997C17.4571 7.99997 17.7777 7.66833 17.7777 7.25923C17.7777 6.85014 17.4571 6.5185 17.0616 6.5185C16.6662 6.5185 16.3456 6.85014 16.3456 7.25923C16.3456 7.66833 16.6662 7.99997 17.0616 7.99997Z" fill="#B7B9C8"/>
<path d="M5.30854 10.5185C5.70402 10.5185 6.02461 10.1869 6.02461 9.77779C6.02461 9.3687 5.70402 9.03706 5.30854 9.03706C4.91307 9.03706 4.59248 9.3687 4.59248 9.77779C4.59248 10.1869 4.91307 10.5185 5.30854 10.5185Z" fill="#B7B9C8"/>
<path d="M10.5431 19.6049C10.9386 19.6049 11.2592 19.2733 11.2592 18.8642C11.2592 18.4551 10.9386 18.1235 10.5431 18.1235C10.1476 18.1235 9.82701 18.4551 9.82701 18.8642C9.82701 19.2733 10.1476 19.6049 10.5431 19.6049Z" fill="#B7B9C8"/>
</svg>
