<svg width="24" height="24" viewBox="0 0 24 24" fill="none" xmlns="http://www.w3.org/2000/svg">
<path d="M12 24C18.6274 24 24 18.6274 24 12C24 5.37258 18.6274 0 12 0C5.37258 0 0 5.37258 0 12C0 18.6274 5.37258 24 12 24Z" fill="black"/>
<path d="M11.9352 20C11.6215 20 11.3078 19.9294 11.0569 19.7883L6.88481 17.4042C6.25744 17.0435 5.88886 16.2358 6.03002 15.5221L7.37103 8.80137C7.42592 8.54258 7.57493 8.22105 7.74746 8.01715L10.5706 4.62933C11.2686 3.79022 12.5861 3.79022 13.284 4.62933L16.1072 8.01715C16.2797 8.22105 16.4287 8.54258 16.4836 8.80137L17.8247 15.5221C17.9658 16.2358 17.5972 17.0435 16.9699 17.3964L12.7978 19.7804C12.5626 19.9294 12.2489 20 11.9352 20ZM11.9352 5.14692C11.7705 5.14692 11.6137 5.23318 11.4803 5.38218L8.65715 8.77C8.61794 8.81706 8.54736 8.96606 8.53168 9.0288L7.19067 15.7495C7.15146 15.9613 7.29261 16.2671 7.47298 16.3769L11.645 18.7609C11.7862 18.8394 12.092 18.8394 12.2253 18.7609L16.3974 16.3769C16.5856 16.2671 16.7267 15.9613 16.6797 15.7495L15.3387 9.0288C15.323 8.96606 15.2524 8.81706 15.2132 8.77L12.39 5.38218C12.2567 5.23318 12.0999 5.14692 11.9352 5.14692Z" fill="white"/>
<path d="M11.9352 19.4197C11.5117 19.4197 11.151 19.1609 11.0098 18.7688L7.59844 9.21701C7.48865 8.91116 7.6455 8.57395 7.95135 8.46416C8.25719 8.35437 8.5944 8.51121 8.70419 8.81706L11.9352 17.8591L15.1583 8.84058C15.2681 8.53474 15.6053 8.37789 15.9112 8.48769C16.217 8.59748 16.3738 8.93469 16.264 9.24053L12.8605 18.7766C12.7194 19.1687 12.3586 19.4197 11.9352 19.4197Z" fill="white"/>
</svg>
