<svg width="24" height="24" viewBox="0 0 24 24" fill="none" xmlns="http://www.w3.org/2000/svg">
<path d="M12 24C18.6274 24 24 18.6274 24 12C24 5.37258 18.6274 0 12 0C5.37258 0 0 5.37258 0 12C0 18.6274 5.37258 24 12 24Z" fill="#13B5EC"/>
<path fill-rule="evenodd" clip-rule="evenodd" d="M12.9889 9.54774L15.8834 7.8593V11.2362L12.9889 9.54774ZM15.8834 16.7839L12.0241 19.0352L8.16478 16.7839V12.8442L12.0241 15.0955L15.8834 12.8442V16.7839ZM8.16478 7.8593L11.0592 9.54774L8.16478 11.2362V7.8593ZM12.5065 10.3518L15.401 12.0402L12.5065 13.7286V10.3518ZM11.5417 13.7286L8.64719 12.0402L11.5417 10.3518V13.7286ZM15.401 7.05528L12.0241 8.98492L8.64719 7.05528L12.0241 5.04523L15.401 7.05528ZM7.19995 6.73367V17.2663L12.0241 20L16.8482 17.2663V6.73367L12.0241 4L7.19995 6.73367Z" fill="white"/>
</svg>
