<svg width="24" height="24" viewBox="0 0 24 24" fill="none" xmlns="http://www.w3.org/2000/svg">
<g clip-path="url(#clip0_2004_156)">
<path fill-rule="evenodd" clip-rule="evenodd" d="M12 23.9997C5.4 23.9997 0 18.5997 0 11.9397C0.06 5.33967 5.4 -0.0603288 12.06 -0.00032876C18.66 0.0596712 24 5.39967 24 12.1197C23.94 18.6597 18.6 23.9997 12 23.9997Z" fill="#2A5ADA"/>
<path d="M12 3L10.4127 3.94954L6.0873 6.55046L4.5 7.5V16.5L6.0873 17.4495L10.4524 20.0505L12.0397 21L13.627 20.0505L17.9127 17.4495L19.5 16.5V7.5L17.9127 6.55046L13.5873 3.94954L12 3ZM7.6746 14.6009V9.39908L12 6.79817L16.3254 9.39908V14.6009L12 17.2018L7.6746 14.6009Z" fill="white"/>
</g>
<defs>
<clipPath id="clip0_2004_156">
<rect width="24" height="24" fill="white"/>
</clipPath>
</defs>
</svg>
