<svg width="24" height="24" viewBox="0 0 24 24" fill="none" xmlns="http://www.w3.org/2000/svg">
  <g clip-path="url(#clip0_4_259)">
    <g filter="url(#filter0_i_4_259)">
      <path
        d="M0 12.0001C0 18.6268 5.37313 24 12 24C18.6267 24 24 18.6268 24 12.0001C24 5.37333 18.6267 0 12 0C5.37313 0 0 5.37333 0 12.0001Z"
        fill="white"/>
    </g>
    <path
      d="M7.21036 4.46578C7.62136 3.99778 7.99936 3.60178 8.35936 3.26578C2.28136 3.07078 4.05136 7.46578 2.05936 11.9268C-0.220636 17.0688 2.32936 19.0278 6.12736 19.6398C5.59698 19.0078 5.16419 18.2999 4.84336 17.5398C2.39236 14.4408 3.38536 8.79178 7.21036 4.46578Z"
      fill="#EFE812"/>
    <path
      d="M21.8354 9.94375C21.1176 11.8215 20.0792 13.5604 18.7664 15.0827C17.7139 16.3618 16.4532 17.4541 15.0374 18.3137C13.3931 19.3557 11.4819 19.8986 9.53538 19.8768C8.39892 19.887 7.26341 19.8077 6.13938 19.6398C6.76345 20.3852 7.53716 20.9913 8.41038 21.4188C13.9064 24.0768 14.2514 19.1418 20.0654 16.6368C23.3294 15.2297 23.3414 12.4818 21.8324 9.94375"
      fill="#EDE70A"/>
    <path
      d="M15.0374 4.81376C15.8331 4.95302 16.5997 5.2248 17.3054 5.61776C19.1542 6.65723 20.7119 8.14482 21.8354 9.94375C22.8254 7.15375 22.3634 4.96376 20.2004 4.56776C17.8184 4.13276 15.9584 3.99176 14.1704 2.74376C11.9684 1.21376 10.0364 1.71176 8.36243 3.26876L8.72543 3.28376C11.0474 3.42176 13.2674 3.88376 15.0254 4.80776"
      fill="#EDE70A"/>
    <path
      d="M7.21045 4.46548C3.38545 8.79148 2.39245 14.4405 4.85545 17.5395C4.28569 16.1942 4.03704 14.7348 4.12921 13.2768C4.22137 11.8188 4.65182 10.4023 5.38645 9.13948C7.45945 5.68348 11.6205 4.18348 15.0375 4.81348C13.2675 3.87748 11.0475 3.42748 8.73745 3.28948L8.37445 3.27148C8.00245 3.61348 7.62445 3.99748 7.21045 4.46548Z"
      fill="#DEC21C"/>
    <path
      d="M17.3055 5.61153C16.5994 5.22065 15.8327 4.95087 15.0375 4.81348C17.3655 6.03748 18.9105 8.11353 18.9105 11.3955C18.897 12.781 18.5352 14.1407 17.8583 15.3496C17.1815 16.5586 16.2115 17.5778 15.0375 18.3135C16.454 17.4548 17.7148 16.3624 18.7665 15.0825C20.0793 13.5601 21.1177 11.8213 21.8355 9.94353C20.7127 8.1424 19.1549 6.65268 17.3055 5.61153Z"
      fill="#E5CB22"/>
    <path
      d="M15.0374 4.81371C11.6204 4.18371 7.45943 5.68371 5.38643 9.12471C4.64873 10.3891 4.21656 11.8084 4.12437 13.2693C4.03218 14.7303 4.28252 16.1926 4.85543 17.5397C5.17512 18.3004 5.60801 19.0084 6.13943 19.6397C7.26346 19.8077 8.39897 19.8869 9.53543 19.8767C11.482 19.8986 13.3931 19.3557 15.0374 18.3137C16.2116 17.5782 17.1819 16.559 17.8587 15.35C18.5355 14.1411 18.8972 12.7812 18.9104 11.3957C18.9104 8.11371 17.3654 6.03771 15.0374 4.81371ZM14.6534 16.7537C13.3897 17.5654 11.8559 17.8438 10.3875 17.5278C8.91909 17.2119 7.63552 16.3274 6.81743 15.0677C5.11943 12.4487 5.95943 9.06771 8.50643 7.26771C11.3564 5.24271 15.0104 6.04071 16.3424 8.95371C17.6414 11.7917 17.2844 15.0707 14.6534 16.7537Z"
      fill="#CCA727"/>
  </g>
  <defs>
    <filter id="filter0_i_4_259" x="0" y="0" width="24" height="24" filterUnits="userSpaceOnUse"
            color-interpolation-filters="sRGB">
      <feFlood flood-opacity="0" result="BackgroundImageFix"/>
      <feBlend mode="normal" in="SourceGraphic" in2="BackgroundImageFix" result="shape"/>
      <feColorMatrix in="SourceAlpha" type="matrix" values="0 0 0 0 0 0 0 0 0 0 0 0 0 0 0 0 0 0 127 0"
                     result="hardAlpha"/>
      <feMorphology radius="0.5" operator="erode" in="SourceAlpha" result="effect1_innerShadow_4_259"/>
      <feOffset/>
      <feComposite in2="hardAlpha" operator="arithmetic" k2="-1" k3="1"/>
      <feColorMatrix type="matrix" values="0 0 0 0 0 0 0 0 0 0 0 0 0 0 0 0 0 0 0.05 0"/>
      <feBlend mode="normal" in2="shape" result="effect1_innerShadow_4_259"/>
    </filter>
    <clipPath id="clip0_4_259">
      <rect width="24" height="24" fill="white"/>
    </clipPath>
  </defs>
</svg>
