<svg width="24" height="24" viewBox="0 0 24 24" fill="none" xmlns="http://www.w3.org/2000/svg">
<g clip-path="url(#clip0_484_320)">
<g filter="url(#filter0_i_484_320)">
<path d="M0 12.0001C0 18.6268 5.37313 24 12 24C18.6267 24 24 18.6268 24 12.0001C24 5.37333 18.6267 0 12 0C5.37313 0 0 5.37333 0 12.0001Z" fill="#EF3B67"/>
</g>
<path fill-rule="evenodd" clip-rule="evenodd" d="M13.478 6.97803C14.5189 6.97803 15.3857 7.32141 16.0665 8.008C16.7531 8.69442 17.0963 9.56108 17.0963 10.6191C17.0963 11.6771 16.7531 12.5437 16.0722 13.2303C15.3912 13.9169 14.5302 14.2601 13.4835 14.2601H11.5252V17.0514H9.19531V15.5263C10.1294 15.2281 10.8049 14.3558 10.8049 13.3203C10.8049 12.2849 10.1294 11.4126 9.19531 11.1143V6.97803H13.478ZM13.1177 12.3637C13.5904 12.3637 13.9731 12.2005 14.277 11.874C14.5809 11.5476 14.733 11.1312 14.7272 10.6191C14.7272 10.1125 14.5809 9.69621 14.277 9.36974C13.9731 9.04344 13.5848 8.88012 13.1177 8.88012H11.5195V12.3637H13.1177Z" fill="white"/>
<path d="M9.67932 13.3373C9.67932 14.2714 8.92525 15.0255 7.99111 15.0255C7.05697 15.0255 6.30273 14.2714 6.30273 13.3373C6.30273 12.403 7.05697 11.6489 7.99111 11.6489C8.92525 11.6489 9.67932 12.403 9.67932 13.3373Z" fill="white"/>
</g>
<defs>
<filter id="filter0_i_484_320" x="0" y="0" width="24" height="24" filterUnits="userSpaceOnUse" color-interpolation-filters="sRGB">
<feFlood flood-opacity="0" result="BackgroundImageFix"/>
<feBlend mode="normal" in="SourceGraphic" in2="BackgroundImageFix" result="shape"/>
<feColorMatrix in="SourceAlpha" type="matrix" values="0 0 0 0 0 0 0 0 0 0 0 0 0 0 0 0 0 0 127 0" result="hardAlpha"/>
<feMorphology radius="0.5" operator="erode" in="SourceAlpha" result="effect1_innerShadow_484_320"/>
<feOffset/>
<feComposite in2="hardAlpha" operator="arithmetic" k2="-1" k3="1"/>
<feColorMatrix type="matrix" values="0 0 0 0 0 0 0 0 0 0 0 0 0 0 0 0 0 0 0.05 0"/>
<feBlend mode="normal" in2="shape" result="effect1_innerShadow_484_320"/>
</filter>
<clipPath id="clip0_484_320">
<rect width="24" height="24" fill="white"/>
</clipPath>
</defs>
</svg>
