<svg width="24" height="24" viewBox="0 0 24 24" fill="none" xmlns="http://www.w3.org/2000/svg">
<path d="M3.89924 2.85359C4.05009 2.70922 4.24921 2.625 4.45437 2.625H23.6066C23.9565 2.625 24.1315 3.04608 23.8841 3.29271L20.1008 7.06436C19.9559 7.20873 19.7568 7.29295 19.5456 7.29295H0.393432C0.043455 7.29295 -0.131534 6.87187 0.115864 6.62524L3.89924 2.85359Z" fill="url(#paint0_linear_3308_907)"/>
<path d="M3.89924 16.9356C4.04405 16.7913 4.24318 16.7071 4.45437 16.7071H23.6066C23.9565 16.7071 24.1315 17.1281 23.8841 17.3748L20.1008 21.1464C19.9559 21.2908 19.7568 21.375 19.5456 21.375H0.393432C0.043455 21.375 -0.131534 20.9539 0.115864 20.7073L3.89924 16.9356Z" fill="url(#paint1_linear_3308_907)"/>
<path d="M19.5456 9.62091C19.7568 9.62091 19.9559 9.70513 20.1008 9.8495L23.8841 13.6211C24.1315 13.8678 23.9565 14.2889 23.6066 14.2889H4.45437C4.24318 14.2889 4.04405 14.2046 3.89924 14.0603L0.115864 10.2886C-0.131534 10.042 0.043455 9.62091 0.393432 9.62091H19.5456Z" fill="url(#paint2_linear_3308_907)"/>
<defs>
<linearGradient id="paint0_linear_3308_907" x1="18.8607" y1="-1.14592" x2="5.67033" y2="24.1974" gradientUnits="userSpaceOnUse">
<stop stop-color="#00FFA3"/>
<stop offset="1" stop-color="#DC1FFF"/>
</linearGradient>
<linearGradient id="paint1_linear_3308_907" x1="18.8607" y1="-1.14592" x2="5.67033" y2="24.1974" gradientUnits="userSpaceOnUse">
<stop stop-color="#00FFA3"/>
<stop offset="1" stop-color="#DC1FFF"/>
</linearGradient>
<linearGradient id="paint2_linear_3308_907" x1="18.8607" y1="-1.14592" x2="5.67033" y2="24.1974" gradientUnits="userSpaceOnUse">
<stop stop-color="#00FFA3"/>
<stop offset="1" stop-color="#DC1FFF"/>
</linearGradient>
</defs>
</svg>
