<svg width="24" height="24" viewBox="0 0 24 24" fill="none" xmlns="http://www.w3.org/2000/svg">
<path d="M0 12C0 5.37258 5.37258 0 12 0C18.6274 0 24 5.37258 24 12C24 18.6274 18.6274 24 12 24C5.37258 24 0 18.6274 0 12Z" fill="url(#paint0_linear_286_98)"/>
<path d="M10.6799 11.688V10.392C9.69588 9.91198 8.99988 8.87998 8.99988 7.70398C8.99988 6.04798 10.3439 4.70398 11.9999 4.70398C13.8719 4.70398 15.2159 6.04798 15.2159 7.70398C15.2159 8.11198 15.1199 8.51998 14.9279 8.99998L14.3999 7.27198L13.3439 7.60798L14.2799 11.184L17.9279 9.83998L17.4719 8.78398L16.1039 9.23998C16.3439 8.71198 16.3919 8.30398 16.3919 7.67998C16.3919 5.35198 14.5199 3.47998 11.9759 3.47998C9.64788 3.47998 7.77588 5.35198 7.77588 7.67998C7.79988 9.55198 8.99988 11.136 10.6799 11.688Z" fill="white"/>
<path d="M11.376 6.57593H12.624V17.4239H11.376V6.57593Z" fill="white"/>
<path d="M13.32 13.608V12.312C15 12.864 16.2 14.448 16.224 16.32C16.224 18.648 14.352 20.52 12.024 20.52C9.48002 20.52 7.60802 18.648 7.60802 16.32C7.60802 15.696 7.65602 15.288 7.89602 14.76L6.52802 15.216L6.07202 14.16L9.72002 12.816L10.656 16.392L9.60002 16.728L9.07202 15C8.88002 15.48 8.78402 15.888 8.78402 16.296C8.78402 17.952 10.128 19.296 12 19.296C13.656 19.296 15 17.952 15 16.296C15 15.12 14.304 14.088 13.32 13.608Z" fill="white"/>
<defs>
<linearGradient id="paint0_linear_286_98" x1="0" y1="0" x2="24" y2="24" gradientUnits="userSpaceOnUse">
<stop stop-color="#0077FC"/>
<stop offset="1" stop-color="#095EB5"/>
</linearGradient>
</defs>
</svg>
